<svg width="1em" height="1em" viewBox="0 0 21 21" fill="none" xmlns="http://www.w3.org/2000/svg">
<path d="M10.3335 20.2688C7.67691 20.2688 5.12061 19.2162 3.26583 17.3115C-0.643948 13.4017 -0.643948 7.03568 3.26583 3.1259C5.12052 1.27138 7.677 0.21875 10.3335 0.21875C12.99 0.21875 15.5464 1.27138 17.4012 3.17609C21.3109 7.08586 21.3109 13.4519 17.4012 17.3617C15.5465 19.2162 12.99 20.2688 10.3335 20.2688ZM10.3335 1.22137C7.92748 1.22137 5.67184 2.17381 3.96744 3.87795C0.458609 7.38678 0.458609 13.1012 3.96744 16.6599C5.67176 18.314 7.9274 19.2665 10.3335 19.2665C12.7396 19.2665 14.9952 18.314 16.6996 16.6099C20.2084 13.1011 20.2084 7.3867 16.6996 3.82794C14.9952 2.17381 12.7396 1.22137 10.3335 1.22137ZM11.0854 6.48453C10.8848 6.68509 10.6844 6.7351 10.4337 6.7351C10.1831 6.7351 9.93238 6.6349 9.782 6.48453C9.58144 6.28397 9.53143 6.08358 9.53143 5.83284C9.53143 5.58227 9.63163 5.33153 9.782 5.18116C9.98256 4.9806 10.1829 4.93059 10.4337 4.93059C10.6843 4.93059 10.8848 5.03078 11.0854 5.18116C11.2859 5.38171 11.3359 5.5821 11.3359 5.83284C11.3359 6.08358 11.2859 6.33415 11.0854 6.48453ZM9.73199 15.056V8.28904C9.73199 8.18885 9.83219 8.08848 9.93255 8.08848H10.935C11.0352 8.08848 11.1356 8.18867 11.1356 8.28904V15.1062C11.1356 15.2064 11.0354 15.3068 10.935 15.3068H9.93255C9.83219 15.2566 9.73199 15.1562 9.73199 15.056V15.056Z" fill="currentColor"/>
</svg>