<svg width="1em" height="1em" viewBox="0 0 30 30" fill="none" xmlns="http://www.w3.org/2000/svg">
<path d="M14.9649 8.47256V3.87891C13.3653 3.96095 11.8067 4.37115 10.3711 5.10936L12.6679 9.08788C13.3653 8.75971 14.1447 8.55461 14.965 8.47256H14.9649Z" fill="url(#paint0_linear_2541_9063)"/>
<path d="M9.83739 11.8769L5.85887 9.58008C5.12067 11.0157 4.66944 12.5743 4.62842 14.1739H9.22227C9.2631 13.9686 9.18124 13.3125 9.83739 11.8769V11.8769Z" fill="url(#paint1_linear_2541_9063)"/>
<path d="M11.9703 9.49806L9.67346 5.51953C8.31993 6.38081 7.17153 7.5294 6.31006 8.88293L10.2886 11.1798C10.6988 10.5234 11.3141 9.94913 11.9703 9.49806Z" fill="url(#paint2_linear_2541_9063)"/>
<path d="M9.22207 15.0352H4.62842C4.71046 16.6349 5.12067 18.2345 5.85887 19.6291C6.06398 19.506 9.63232 17.4553 9.83739 17.3322C9.50922 16.6348 9.2631 15.8144 9.22207 15.0352V15.0352Z" fill="url(#paint3_linear_2541_9063)"/>
<path d="M10.2481 18.0703C9.91988 18.2754 6.63871 20.162 6.26953 20.3672C7.13081 21.7207 8.2794 22.8691 9.63293 23.7306C10.5352 22.1719 11.1916 21.0235 11.9298 19.752C11.2734 19.301 10.6991 18.6857 10.2481 18.0703Z" fill="url(#paint4_linear_2541_9063)"/>
<path d="M21.5279 14.1739L26.1628 14.2149C26.0807 12.6153 25.6705 11.0156 24.9323 9.62109L20.9126 11.9181C20.9126 11.9592 21.4459 12.9845 21.5279 14.174V14.1739Z" fill="url(#paint5_linear_2541_9063)"/>
<path d="M18.8203 9.49806C19.4356 9.90828 20.0508 10.5234 20.502 11.1798L24.4806 8.88293C23.6193 7.5294 22.4707 6.381 21.1172 5.51953L19.8867 7.65228L18.8203 9.49806Z" fill="url(#paint6_linear_2541_9063)"/>
<path d="M20.0098 5.7657L20.379 5.10936C18.9845 4.37115 17.3848 3.91993 15.7852 3.87891V8.51378C16.5234 8.5548 17.3438 8.75991 18.082 9.1291L20.0098 5.7657ZM16.7285 6.01183C16.7285 5.47856 17.1387 5.06851 17.6718 5.06851C18.2051 5.06851 18.6151 5.47873 18.6151 6.01183C18.6151 6.54511 18.2049 6.95516 17.6718 6.95516C17.1387 6.95535 16.7285 6.54513 16.7285 6.01183Z" fill="url(#paint7_linear_2541_9063)"/>
<path d="M15.375 1.5C8.15591 1.5 2.25 7.4064 2.25 14.625C2.25 21.8848 8.1564 27.75 15.375 27.75C22.5941 27.75 28.5 21.8436 28.5 14.625C28.5 7.40591 22.5936 1.5 15.375 1.5ZM26.9827 15.0352C26.7776 21.188 21.8148 25.9863 15.8265 26.1914H15.0062C8.85348 25.9863 4.05465 21.0643 3.8088 15.0352V14.215C4.05493 8.1447 8.93592 3.26343 14.965 3.05831H15.7852C21.7736 3.26341 26.7363 8.02103 26.9827 14.2145C26.9829 14.1735 26.9829 14.9939 26.9829 15.035L26.9827 15.0352Z" fill="url(#paint8_linear_2541_9063)"/>
<path d="M12.6679 20.1621L10.5352 23.8945L10.3711 24.1817C11.8067 24.9199 13.3653 25.3711 14.9649 25.4121L14.9647 20.7775C14.2265 20.7364 13.4061 20.5313 12.6679 20.1621L12.6679 20.1621Z" fill="url(#paint9_linear_2541_9063)"/>
<path d="M15.8267 20.7774V25.3713C17.4264 25.2892 19.026 24.879 20.4206 24.1408L18.1235 20.1621C16.9751 20.6954 15.8677 20.7774 15.8267 20.7774H15.8267Z" fill="url(#paint10_linear_2541_9063)"/>
<path d="M20.9126 17.332L24.9321 19.629C25.6703 18.1934 26.1216 16.6348 26.1626 14.9941H21.5279C21.4869 15.7734 21.2818 16.5938 20.9126 17.332V17.332Z" fill="url(#paint11_linear_2541_9063)"/>
<path d="M20.502 18.0293C20.0098 18.7265 19.4357 19.3008 18.8203 19.711L21.1172 23.7306C22.4707 22.8693 23.6191 21.7207 24.4806 20.3672L24.1936 20.1621L20.502 18.0293Z" fill="url(#paint12_linear_2541_9063)"/>
<path d="M20.7072 14.6252C20.7072 11.713 18.3283 9.29297 15.3749 9.29297C12.4216 9.29297 10.002 11.6719 10.002 14.6252C10.002 17.6605 12.4629 19.9575 15.3342 19.9575C18.4105 19.9575 20.7072 17.4966 20.7072 14.6252ZM18.2873 15.0354H16.5236C16.4005 15.3636 16.1134 15.6508 15.7854 15.7736V17.5374C15.9905 17.6604 16.1135 17.9066 16.1135 18.1937C16.1135 18.6039 15.7854 18.9319 15.3753 18.9319C14.9651 18.9319 14.6371 18.6037 14.6371 18.1937C14.6371 17.9066 14.7602 17.7015 14.9653 17.5374V15.7736C14.6371 15.6506 14.35 15.3634 14.2271 15.0354H12.4634C12.3403 15.2405 12.0942 15.3636 11.807 15.3636C11.3968 15.3636 11.0688 15.0354 11.0688 14.6254C11.0688 14.2152 11.397 13.8872 11.807 13.8872C12.0942 13.8872 12.2993 14.0103 12.4634 14.2154H14.2271C14.3502 13.8872 14.6373 13.6001 14.9653 13.4772V11.7135C14.7602 11.5904 14.6371 11.3443 14.6371 11.0571C14.6371 10.6469 14.9653 10.3189 15.3753 10.3189C15.7856 10.3189 16.1135 10.6471 16.1135 11.0571C16.1135 11.3443 15.9905 11.5494 15.7854 11.7135V13.4772C16.1135 13.6002 16.4007 13.8874 16.5236 14.2154H18.2873C18.4104 14.0103 18.6565 13.8872 18.9436 13.8872C19.3539 13.8872 19.6819 14.2154 19.6819 14.6254C19.6819 15.0356 19.3537 15.3636 18.9436 15.3636C18.6565 15.4044 18.4104 15.2405 18.2873 15.0354Z" fill="url(#paint13_linear_2541_9063)"/>
<defs>
<linearGradient id="paint0_linear_2541_9063" x1="12.668" y1="3.87891" x2="12.668" y2="9.08788" gradientUnits="userSpaceOnUse">
<stop offset="0.265625" stop-color="white"/>
<stop offset="0.869792" stop-color="#DBDBDB"/>
</linearGradient>
<linearGradient id="paint1_linear_2541_9063" x1="7.23291" y1="9.58008" x2="7.23291" y2="14.1739" gradientUnits="userSpaceOnUse">
<stop offset="0.265625" stop-color="white"/>
<stop offset="0.869792" stop-color="#DBDBDB"/>
</linearGradient>
<linearGradient id="paint2_linear_2541_9063" x1="9.14018" y1="5.51953" x2="9.14018" y2="11.1798" gradientUnits="userSpaceOnUse">
<stop offset="0.265625" stop-color="white"/>
<stop offset="0.869792" stop-color="#DBDBDB"/>
</linearGradient>
<linearGradient id="paint3_linear_2541_9063" x1="7.23291" y1="15.0352" x2="7.23291" y2="19.6291" gradientUnits="userSpaceOnUse">
<stop offset="0.265625" stop-color="white"/>
<stop offset="0.869792" stop-color="#DBDBDB"/>
</linearGradient>
<linearGradient id="paint4_linear_2541_9063" x1="9.09966" y1="18.0703" x2="9.09966" y2="23.7306" gradientUnits="userSpaceOnUse">
<stop offset="0.265625" stop-color="white"/>
<stop offset="0.869792" stop-color="#DBDBDB"/>
</linearGradient>
<linearGradient id="paint5_linear_2541_9063" x1="23.5377" y1="9.62109" x2="23.5377" y2="14.2149" gradientUnits="userSpaceOnUse">
<stop offset="0.265625" stop-color="white"/>
<stop offset="0.869792" stop-color="#DBDBDB"/>
</linearGradient>
<linearGradient id="paint6_linear_2541_9063" x1="21.6504" y1="5.51953" x2="21.6504" y2="11.1798" gradientUnits="userSpaceOnUse">
<stop offset="0.265625" stop-color="white"/>
<stop offset="0.869792" stop-color="#DBDBDB"/>
</linearGradient>
<linearGradient id="paint7_linear_2541_9063" x1="18.0821" y1="3.87891" x2="18.0821" y2="9.1291" gradientUnits="userSpaceOnUse">
<stop offset="0.265625" stop-color="white"/>
<stop offset="0.869792" stop-color="#DBDBDB"/>
</linearGradient>
<linearGradient id="paint8_linear_2541_9063" x1="15.375" y1="1.5" x2="15.375" y2="27.75" gradientUnits="userSpaceOnUse">
<stop offset="0.265625" stop-color="white"/>
<stop offset="0.869792" stop-color="#DBDBDB"/>
</linearGradient>
<linearGradient id="paint9_linear_2541_9063" x1="12.668" y1="20.1621" x2="12.668" y2="25.4121" gradientUnits="userSpaceOnUse">
<stop offset="0.265625" stop-color="white"/>
<stop offset="0.869792" stop-color="#DBDBDB"/>
</linearGradient>
<linearGradient id="paint10_linear_2541_9063" x1="18.1236" y1="20.1621" x2="18.1236" y2="25.3713" gradientUnits="userSpaceOnUse">
<stop offset="0.265625" stop-color="white"/>
<stop offset="0.869792" stop-color="#DBDBDB"/>
</linearGradient>
<linearGradient id="paint11_linear_2541_9063" x1="23.5376" y1="14.9941" x2="23.5376" y2="19.629" gradientUnits="userSpaceOnUse">
<stop offset="0.265625" stop-color="white"/>
<stop offset="0.869792" stop-color="#DBDBDB"/>
</linearGradient>
<linearGradient id="paint12_linear_2541_9063" x1="21.6504" y1="18.0293" x2="21.6504" y2="23.7306" gradientUnits="userSpaceOnUse">
<stop offset="0.265625" stop-color="white"/>
<stop offset="0.869792" stop-color="#DBDBDB"/>
</linearGradient>
<linearGradient id="paint13_linear_2541_9063" x1="15.3546" y1="9.29297" x2="15.3546" y2="19.9575" gradientUnits="userSpaceOnUse">
<stop offset="0.265625" stop-color="white"/>
<stop offset="0.869792" stop-color="#DBDBDB"/>
</linearGradient>
</defs>
</svg>