<?xml version="1.0" standalone="no"?><!DOCTYPE svg PUBLIC "-//W3C//DTD SVG 1.1//EN" "http://www.w3.org/Graphics/SVG/1.1/DTD/svg11.dtd"><svg t="1693481071616" class="icon" viewBox="0 0 1087 1024" version="1.1" xmlns="http://www.w3.org/2000/svg" p-id="1467" xmlns:xlink="http://www.w3.org/1999/xlink" width="212.3046875" height="200"><path d="M832.146645 831.514666c98.718963-138.293354 112.826937-319.846247 36.65903-471.729607-75.635608-150.831046-227.981659-247.799564-396.454325-252.659864-109.983231 30.734131-205.590292 106.6277-258.924615 214.543153-84.932417 171.850718-40.280711 379.553828 107.782379 501.311107a412.730394 412.730394 0 0 0 71.250283 47.159653c141.192337 72.996633 312.52304 58.489435 439.687248-38.624442z m-440.972955-136.575666c-16.390718-16.386623-16.390718-42.960632 0-59.35135l131.080701-131.078654-131.080701-131.076607c-16.390718-16.390718-16.390718-42.96268 0-59.353398s42.96268-16.390718 59.353397 0l131.080702 131.076607 131.080701-131.076607c16.390718-16.390718 42.96268-16.390718 59.353397 0s16.390718 42.96268 0 59.353398l-131.080701 131.076607 131.080701 131.078654c16.392765 16.390718 16.390718 42.964727 0 59.35135-16.390718 16.394812-42.960632 16.394812-59.353397 0l-131.080701-131.076607-131.082749 131.076607c-16.38867 16.394812-42.960632 16.394812-59.35135 0z" fill="#F8C0CA" p-id="1468"></path><path d="M76.986191 535.273837c-0.139217-2.231562-0.286623-4.459029-0.39513-6.696733-0.014331-0.298906-0.02252-0.601907-0.034804-0.900814-0.368515-7.775662-0.585529-15.590222-0.597813-23.453917a501.661195 501.661195 0 0 1 23.294228-151.363345l0.286623-0.900813a494.618469 494.618469 0 0 1 3.31868-10.068643c0.221109-0.65309 0.442218-1.30618 0.665374-1.955175 1.111686-3.214268 2.254082-6.416252 3.429234-9.605952 0.192447-0.520015 0.374657-1.044125 0.569151-1.56414a505.368863 505.368863 0 0 1 4.092561-10.627557c0.425839-1.072787 0.874199-2.133291 1.308228-3.201983 0.945855-2.325738 1.897851-4.649428 2.880557-6.960835 0.687894-1.62556 1.394214-3.24293 2.100534-4.8603a533.922616 533.922616 0 0 1 4.772266-10.613225c0.624428-1.345079 1.263187-2.684016 1.899898-4.022953 0.988848-2.082108 1.975649-4.166264 2.993159-6.231994 0.157642-0.321427 0.323474-0.638759 0.481117-0.958139 4.258393-8.613009 8.762462-17.080659 13.489687-25.404998l0.21292-0.376704a504.463955 504.463955 0 0 1 32.697496-50.259272c-170.605957 134.747423-223.201203 370.746326-125.946063 565.189046 97.066789 194.066017 316.773244 293.499489 526.535942 238.533465-266.069707-2.853942-482.31417-211.437393-498.053845-473.695019z" fill="#F8C0CA" p-id="1469"></path><path d="M582.676481 0v0.137169C415.364637-0.579387 266.763105 80.24409 174.450157 205.24225a504.463955 504.463955 0 0 0-32.697496 50.259272l-0.21292 0.376704a502.922335 502.922335 0 0 0-13.489687 25.404999c-0.157642 0.321427-0.323474 0.636712-0.481117 0.958138-1.01751 2.06573-2.004311 4.149886-2.993159 6.231994-0.636712 1.338937-1.275471 2.677874-1.899898 4.022953a493.72175 493.72175 0 0 0-4.772266 10.613225c-0.70632 1.61737-1.410593 3.234741-2.100534 4.860301a482.522995 482.522995 0 0 0-2.880557 6.960834c-0.434028 1.068693-0.882388 2.129196-1.308228 3.201984a499.3416 499.3416 0 0 0-4.092561 10.627556c-0.194494 0.520015-0.376704 1.044125-0.569151 1.564141a499.634364 499.634364 0 0 0-3.429234 9.605951c-0.223156 0.648995-0.444265 1.302085-0.665374 1.955176a507.799014 507.799014 0 0 0-3.31868 10.068642l-0.286623 0.900814c-14.873665 47.221072-22.993274 97.449635-23.218477 149.557622-0.036851 8.469698 0.145359 16.89026 0.522062 25.257593 0.012284 0.298906 0.020473 0.601907 0.034804 0.900813 0.104413 2.239751 0.262055 4.467218 0.39513 6.696733 15.739675 262.257626 231.984139 470.83903 498.051798 473.690925 1.10145 0.012284 2.198805 0.051183 3.302302 0.055277h4.334143c278.63606 0 504.515138-225.879077 504.515138-504.506949C1087.191619 225.879077 861.312542 0 582.676481 0z m251.331164 831.864755l-0.073703 0.071656c-129.170567 98.872511-301.713274 111.154289-441.474545 38.202697a412.730394 412.730394 0 0 1-71.250283-47.159653c-148.061043-121.759325-192.712748-329.460388-107.782379-501.311107 53.334323-107.915454 148.941384-183.809022 258.924615-214.543153 65.161599-18.208724 135.367757-20.57336 204.822553-4.328002 186.654775 43.662858 318.628101 210.16397 318.5155 401.855114 0.151501 128.32503-59.658446 249.35961-161.681758 327.212448z" fill="#F23051" p-id="1470"></path><path d="M712.692585 694.939c16.392765 16.394812 42.96268 16.394812 59.353397 0 16.390718-16.386623 16.392765-42.960632 0-59.35135l-131.080702-131.078654 131.080702-131.076607c16.390718-16.390718 16.390718-42.96268 0-59.353398s-42.96268-16.390718-59.353397 0l-131.080702 131.076607-131.080701-131.076607c-16.390718-16.390718-42.96268-16.390718-59.353398 0s-16.390718 42.96268 0 59.353398l131.080702 131.076607-131.080702 131.078654c-16.390718 16.390718-16.390718 42.964727 0 59.35135 16.390718 16.394812 42.96268 16.394812 59.353398 0l131.082748-131.076607 131.078655 131.076607z" fill="#F23051" p-id="1471"></path></svg>