<svg width="53" height="76"  viewBox="0 0 53 76" fill="none" xmlns="http://www.w3.org/2000/svg">
<path d="M0.774165 73.5538L0.920167 74.0957C15.0561 69.2575 27.2997 60.0012 35.8755 47.6691C37.9728 44.5883 39.8385 41.3535 41.457 37.9916C41.8626 37.1518 42.2102 36.2835 42.5894 35.4322L43.1556 34.1499C43.332 33.7185 43.4821 33.2757 43.648 32.8387L44.6167 30.2159L45.4373 27.5463C46.0162 25.7745 46.394 23.9438 46.8564 22.1367C47.093 21.2333 47.2129 20.3054 47.4018 19.39C47.5907 18.4746 47.7529 17.5586 47.894 16.6366L48.2481 13.8634C48.3626 12.9354 48.509 12.0135 48.5543 11.0837L48.7596 8.29055L48.8648 6.89943L48.9008 5.50115L48.368 5.48741L48.3333 6.83191L48.2335 8.22317L48.0288 10.9948C48.0048 11.9252 47.8372 12.8411 47.7229 13.7584L47.3692 16.5154C47.2336 17.4322 47.0396 18.342 46.8775 19.2527C46.7153 20.1634 46.5743 21.0854 46.338 21.9781C45.8811 23.7745 45.5196 25.5949 44.9304 27.3556L44.1151 30.0254L43.1522 32.6268C42.9917 33.0639 42.8418 33.5014 42.6655 33.9274L42.0995 35.199C41.7205 36.0449 41.373 36.9077 40.9675 37.7422C39.3624 41.0756 37.5134 44.2839 35.4361 47.3403C31.2046 53.4187 26.0473 58.7837 20.1554 63.2364C17.2116 65.4559 14.1052 67.4465 10.8628 69.1911C9.24408 70.0714 7.59171 70.8773 5.90571 71.6088C4.23281 72.3541 2.51957 73.0035 0.774165 73.5538Z" fill="url(#paint0_linear_2541_8539)"/>
<path d="M48.685 1.45887C49.2632 2.55128 49.5823 3.76425 49.6174 5.00245C49.61 5.73166 49.4191 6.44709 49.0626 7.08158C48.9104 7.35233 48.7248 7.60252 48.5102 7.82614C48.3326 7.58044 48.1837 7.31475 48.0668 7.03439C47.7627 6.37925 47.6081 5.6636 47.6142 4.94005C47.71 3.7138 48.0759 2.52449 48.685 1.45887Z" fill="url(#paint1_linear_2541_8539)"/>
<path d="M51.7753 7.55567C51.7753 7.55567 51.464 9.91016 50.5215 11.1021C50.2807 11.4346 49.9475 11.6876 49.5642 11.8291C49.1809 11.9706 48.7647 11.9942 48.3683 11.8969C48.3579 10.8242 48.6714 9.77362 49.267 8.88484C49.9142 8.14734 50.8065 7.6745 51.7753 7.55567Z" fill="url(#paint2_linear_2541_8539)"/>
<path d="M45.2949 7.21094C45.2949 7.21094 45.2703 9.40599 46.0316 10.6957C46.2296 11.0592 46.5233 11.3604 46.8802 11.5661C47.2371 11.7719 47.6434 11.8742 48.0543 11.8618C48.2207 10.8091 48.0624 9.73035 47.6008 8.77183C47.0656 7.96564 46.2372 7.40485 45.2949 7.21094Z" fill="url(#paint3_linear_2541_8539)"/>
<path d="M51.855 12.5179C51.855 12.5179 51.3541 15.1958 50.2122 16.4687C50.0043 16.7216 49.7467 16.9282 49.4556 17.0754C49.1645 17.2226 48.8463 17.3072 48.5212 17.3238C48.2441 17.3422 47.9661 17.3058 47.7029 17.2166C47.7126 17.1033 47.728 16.9905 47.7489 16.8788C47.7821 16.5942 47.8303 16.3116 47.8934 16.0322C48.0583 15.2406 48.4123 14.5015 48.9246 13.8792C49.7028 13.0777 50.7459 12.5931 51.855 12.5179Z" fill="url(#paint4_linear_2541_8539)"/>
<path d="M44.522 11.7599C44.522 11.7599 44.3627 14.2151 45.1452 15.7152C45.4372 16.298 45.9268 16.7556 46.5249 17.0047C46.7836 17.1074 47.0586 17.1619 47.3366 17.1655C47.3366 17.1655 47.3719 17.0373 47.4146 16.8285C47.4617 16.5408 47.4906 16.2503 47.501 15.9589C47.5384 15.1557 47.3757 14.3559 47.0278 13.6327C46.4694 12.6998 45.569 12.0269 44.522 11.7599Z" fill="url(#paint5_linear_2541_8539)"/>
<path d="M51.281 18.4564C51.142 18.9998 50.9716 19.5345 50.7705 20.0577C50.4512 21.0086 49.9343 21.8796 49.2543 22.6125C48.9031 22.9786 48.4521 23.2312 47.9586 23.3382C47.465 23.4453 46.9512 23.402 46.4822 23.2138C46.5539 22.7875 46.6647 22.3687 46.813 21.963C47.0584 21.1341 47.4843 20.3709 48.0596 19.7295C48.9421 18.9201 50.0889 18.4669 51.281 18.4564Z" fill="url(#paint6_linear_2541_8539)"/>
<path d="M43.5089 17.1256C43.4658 17.6299 43.4527 18.1363 43.4698 18.6422C43.4669 19.5775 43.6234 20.5063 43.9323 21.3879C44.1075 21.8513 44.4063 22.2566 44.7956 22.5592C45.1849 22.8617 45.6495 23.0497 46.1382 23.1023C46.2684 22.6941 46.363 22.2751 46.4211 21.8503C46.5434 20.9961 46.4332 20.1245 46.1021 19.3289C45.5575 18.2796 44.6262 17.4884 43.5089 17.1256Z" fill="url(#paint7_linear_2541_8539)"/>
<path d="M50.0363 25.3709C49.8623 25.9284 49.6505 26.4731 49.4025 27.0013C48.9444 27.9624 48.3086 28.8265 47.5293 29.5469C47.252 29.7891 46.9289 29.9719 46.5795 30.0841C46.2301 30.1963 45.8618 30.2355 45.4969 30.1995C45.1846 30.1673 44.8812 30.0755 44.6028 29.9289C44.7038 29.4851 44.8434 29.051 45.0201 28.632C45.3568 27.7781 45.8921 27.0185 46.5809 26.4173C47.2331 25.8742 48.0205 25.5222 48.8572 25.3997C49.2478 25.344 49.6435 25.3344 50.0363 25.3709Z" fill="url(#paint8_linear_2541_8539)"/>
<path d="M41.9797 23.2969C41.8995 23.8216 41.8468 24.3501 41.8216 24.8804C41.7027 25.8518 41.7733 26.8372 42.0294 27.781C42.2459 28.4913 42.717 29.0945 43.3508 29.4726C43.6181 29.6369 43.9137 29.7486 44.2221 29.8018C44.3883 29.3823 44.5138 28.9476 44.5969 28.5038C44.7991 27.6239 44.7769 26.7068 44.5323 25.8382C44.2319 25.061 43.7089 24.3919 43.0302 23.9159C42.7054 23.6686 42.3528 23.4608 41.9797 23.2969Z" fill="url(#paint9_linear_2541_8539)"/>
<path d="M48.3848 31.9368C48.1256 32.5093 47.8335 33.066 47.51 33.6041C46.9789 34.6113 46.227 35.4828 45.3115 36.1521C44.9887 36.3815 44.6231 36.5423 44.237 36.6248C43.8508 36.7074 43.4521 36.7099 43.065 36.6324C42.7361 36.5667 42.4226 36.438 42.1417 36.2534C42.3035 35.798 42.5058 35.3584 42.7461 34.9397C43.202 34.0812 43.8276 33.3263 44.5841 32.7215C45.7137 32.0001 47.0657 31.721 48.3848 31.9368Z" fill="url(#paint10_linear_2541_8539)"/>
<path d="M40.025 29.0044C39.8767 29.5427 39.7611 30.0897 39.6789 30.6422C39.5086 31.6661 39.5032 32.7109 39.6631 33.7362C39.812 34.5058 40.2439 35.1899 40.8721 35.6509C41.1386 35.8523 41.4406 36.0007 41.762 36.0883C41.9902 35.6627 42.1801 35.2173 42.3295 34.7575C42.744 33.6837 42.7375 32.491 42.3113 31.4222C41.8852 30.3534 41.0714 29.4889 40.0357 29.0047L40.025 29.0044Z" fill="url(#paint11_linear_2541_8539)"/>
<path d="M45.6939 39.7193C45.3408 40.3161 44.9539 40.8919 44.5351 41.4438C44.158 41.9429 43.7504 42.4176 43.3147 42.8654C42.8687 43.2993 42.3637 43.6668 41.815 43.9569C41.4354 44.1647 41.018 44.2929 40.5881 44.3336C40.1582 44.3743 39.7246 44.3268 39.3135 44.1938C38.9653 44.0807 38.6422 43.9006 38.3621 43.6634C38.5907 43.1859 38.8612 42.73 39.1703 42.3011C39.4691 41.8923 39.7981 41.5068 40.1545 41.1479C40.5312 40.7356 40.9682 40.3839 41.4504 40.105C42.7728 39.4643 44.2798 39.3273 45.6939 39.7193Z" fill="url(#paint12_linear_2541_8539)"/>
<path d="M36.9402 35.5383C36.7112 36.0997 36.5182 36.6753 36.3626 37.2617C36.2143 37.8008 36.1056 38.3502 36.0376 38.9055C35.9454 39.4649 35.9218 40.0336 35.9673 40.5988C36.0415 41.4524 36.4254 42.2481 37.0455 42.8331C37.3125 43.0879 37.6235 43.291 37.9631 43.4326C38.2568 42.9964 38.5114 42.5347 38.7238 42.053C38.9323 41.599 39.0894 41.1229 39.1923 40.6335C39.2943 40.0908 39.3086 39.5351 39.2347 38.9879C38.9344 36.7791 36.9402 35.5383 36.9402 35.5383Z" fill="url(#paint13_linear_2541_8539)"/>
<path d="M41.3345 48.3201C40.8857 48.9117 40.4047 49.4778 39.8939 50.0158C38.9666 50.9824 37.8595 51.7549 36.636 52.289C36.2011 52.4549 35.7371 52.5291 35.2727 52.507C34.8083 52.4848 34.3534 52.3668 33.936 52.1602C33.5857 51.9883 33.2714 51.75 33.0104 51.4582C33.0104 51.4582 33.1103 51.3047 33.2924 51.0673C33.4744 50.8298 33.7592 50.5411 34.0786 50.1458C34.8171 49.2816 35.7482 48.6065 36.7954 48.1762C38.2752 47.6621 39.8901 47.7133 41.3345 48.3201Z" fill="url(#paint14_linear_2541_8539)"/>
<path d="M32.6184 42.665C32.3163 43.2326 32.0501 43.8189 31.8214 44.4204C31.3111 45.5064 31.0095 46.6801 30.9324 47.8793C30.8836 48.7869 31.1703 49.6803 31.7369 50.3864C31.9819 50.6937 32.2806 50.9532 32.6183 51.1518C32.6183 51.1518 32.7443 51.0205 32.9368 50.794C33.1976 50.4886 33.4325 50.1616 33.6391 49.8165C34.228 48.8662 34.5678 47.7805 34.6269 46.6615C34.5716 44.2545 32.6184 42.665 32.6184 42.665Z" fill="url(#paint15_linear_2541_8539)"/>
<path d="M35.6331 56.4553C35.0758 57.0016 34.4875 57.5147 33.8712 57.992C32.7878 58.885 31.5275 59.5333 30.1751 59.8933C29.702 60.005 29.2112 60.0167 28.7336 59.9275C28.2559 59.8383 27.8018 59.6502 27.3998 59.3751C27.0598 59.1445 26.7669 58.8502 26.537 58.508C26.537 58.508 26.6633 58.3659 26.8876 58.1457C27.1119 57.9254 27.4343 57.6216 27.8267 57.2927C28.7353 56.5245 29.7948 55.9594 30.9354 55.6346C33.3875 55.0358 35.6331 56.4553 35.6331 56.4553Z" fill="url(#paint16_linear_2541_8539)"/>
<path d="M27.4025 49.3439C26.9966 49.8779 26.6259 50.4382 26.2929 51.0213C25.6336 52.0887 25.1581 53.261 24.8865 54.4885C24.7116 55.4251 24.8759 56.3938 25.3494 57.2181C25.5598 57.5726 25.8338 57.8844 26.1574 58.1376C26.1574 58.1376 26.3044 58.023 26.539 57.8138C26.8548 57.5362 27.1431 57.2282 27.3999 56.8942C28.1687 56.0059 28.6784 54.92 28.8724 53.7571C29.2033 51.2632 27.4025 49.3439 27.4025 49.3439Z" fill="url(#paint17_linear_2541_8539)"/>
<path d="M29.2117 63.5545C29.2117 63.5545 28.9993 63.7266 28.6671 63.9979C28.3349 64.2692 27.7773 64.5939 27.1764 64.9443C25.9137 65.7403 24.4969 66.2543 23.0212 66.4517C22.5083 66.504 21.9902 66.4484 21.4996 66.2885C21.0091 66.1286 20.5568 65.8678 20.1712 65.5226C19.8417 65.2346 19.5717 64.8838 19.3767 64.4904C19.3767 64.4904 19.5295 64.3544 19.796 64.1514C20.0625 63.9483 20.4529 63.6947 20.8819 63.3936C21.9386 62.7038 23.1308 62.2535 24.3764 62.0737C25.5543 61.9701 26.738 62.1864 27.8048 62.7003C28.306 62.927 28.7784 63.2138 29.2117 63.5545Z" fill="url(#paint18_linear_2541_8539)"/>
<path d="M21.5156 54.9399C21.5156 54.9399 21.3567 55.1081 21.1144 55.4032C20.8722 55.6983 20.5103 56.0872 20.1406 56.5674C19.3023 57.5975 18.6462 58.7658 18.2014 60.0208C17.8884 60.9819 17.9374 62.0255 18.3391 62.952C18.508 63.3594 18.7517 63.7309 19.0574 64.0468C19.0574 64.0468 19.2306 63.949 19.5021 63.7569C19.8707 63.506 20.217 63.2232 20.537 62.9117C21.4656 62.0809 22.1484 61.007 22.5098 59.809C22.7761 58.6814 22.6893 57.4983 22.2612 56.423C22.0702 55.9012 21.82 55.4036 21.5156 54.9399Z" fill="url(#paint19_linear_2541_8539)"/>
<defs>
<linearGradient id="paint0_linear_2541_8539" x1="-0.407696" y1="41.179" x2="51.1552" y2="38.4267" gradientUnits="userSpaceOnUse">
<stop offset="0.1" stop-color="#9E5313"/>
<stop offset="0.3" stop-color="#E7AA39"/>
<stop offset="0.48" stop-color="#F7FC97"/>
<stop offset="0.58" stop-color="#E7AA39"/>
<stop offset="0.88" stop-color="#632507"/>
</linearGradient>
<linearGradient id="paint1_linear_2541_8539" x1="48.0872" y1="4.52774" x2="50.1218" y2="4.41914" gradientUnits="userSpaceOnUse">
<stop offset="0.1" stop-color="#9E5313"/>
<stop offset="0.3" stop-color="#E7AA39"/>
<stop offset="0.48" stop-color="#F7FC97"/>
<stop offset="0.58" stop-color="#E7AA39"/>
<stop offset="0.88" stop-color="#632507"/>
</linearGradient>
<linearGradient id="paint2_linear_2541_8539" x1="48.7762" y1="9.70612" x2="52.4181" y2="9.51173" gradientUnits="userSpaceOnUse">
<stop offset="0.1" stop-color="#9E5313"/>
<stop offset="0.3" stop-color="#E7AA39"/>
<stop offset="0.48" stop-color="#F7FC97"/>
<stop offset="0.58" stop-color="#E7AA39"/>
<stop offset="0.88" stop-color="#632507"/>
</linearGradient>
<linearGradient id="paint3_linear_2541_8539" x1="45.9188" y1="9.45198" x2="48.5674" y2="9.3106" gradientUnits="userSpaceOnUse">
<stop offset="0.1" stop-color="#9E5313"/>
<stop offset="0.3" stop-color="#E7AA39"/>
<stop offset="0.48" stop-color="#F7FC97"/>
<stop offset="0.58" stop-color="#E7AA39"/>
<stop offset="0.88" stop-color="#632507"/>
</linearGradient>
<linearGradient id="paint4_linear_2541_8539" x1="48.106" y1="14.9136" x2="52.4955" y2="14.6793" gradientUnits="userSpaceOnUse">
<stop offset="0.1" stop-color="#9E5313"/>
<stop offset="0.3" stop-color="#E7AA39"/>
<stop offset="0.48" stop-color="#F7FC97"/>
<stop offset="0.58" stop-color="#E7AA39"/>
<stop offset="0.88" stop-color="#632507"/>
</linearGradient>
<linearGradient id="paint5_linear_2541_8539" x1="45.1333" y1="14.3971" x2="47.9635" y2="14.246" gradientUnits="userSpaceOnUse">
<stop offset="0.1" stop-color="#9E5313"/>
<stop offset="0.3" stop-color="#E7AA39"/>
<stop offset="0.48" stop-color="#F7FC97"/>
<stop offset="0.58" stop-color="#E7AA39"/>
<stop offset="0.88" stop-color="#632507"/>
</linearGradient>
<linearGradient id="paint6_linear_2541_8539" x1="46.9291" y1="20.9517" x2="51.9647" y2="20.6829" gradientUnits="userSpaceOnUse">
<stop offset="0.1" stop-color="#9E5313"/>
<stop offset="0.3" stop-color="#E7AA39"/>
<stop offset="0.48" stop-color="#F7FC97"/>
<stop offset="0.58" stop-color="#E7AA39"/>
<stop offset="0.88" stop-color="#632507"/>
</linearGradient>
<linearGradient id="paint7_linear_2541_8539" x1="44.0543" y1="20.0713" x2="46.9539" y2="19.9165" gradientUnits="userSpaceOnUse">
<stop offset="0.1" stop-color="#9E5313"/>
<stop offset="0.3" stop-color="#E7AA39"/>
<stop offset="0.48" stop-color="#F7FC97"/>
<stop offset="0.58" stop-color="#E7AA39"/>
<stop offset="0.88" stop-color="#632507"/>
</linearGradient>
<linearGradient id="paint8_linear_2541_8539" x1="45.0649" y1="27.8629" x2="50.736" y2="27.5602" gradientUnits="userSpaceOnUse">
<stop offset="0.1" stop-color="#9E5313"/>
<stop offset="0.3" stop-color="#E7AA39"/>
<stop offset="0.48" stop-color="#F7FC97"/>
<stop offset="0.58" stop-color="#E7AA39"/>
<stop offset="0.88" stop-color="#632507"/>
</linearGradient>
<linearGradient id="paint9_linear_2541_8539" x1="42.359" y1="26.5315" x2="45.2746" y2="26.3759" gradientUnits="userSpaceOnUse">
<stop offset="0.1" stop-color="#9E5313"/>
<stop offset="0.3" stop-color="#E7AA39"/>
<stop offset="0.48" stop-color="#F7FC97"/>
<stop offset="0.58" stop-color="#E7AA39"/>
<stop offset="0.88" stop-color="#632507"/>
</linearGradient>
<linearGradient id="paint10_linear_2541_8539" x1="42.6292" y1="34.4011" x2="49.0906" y2="34.0562" gradientUnits="userSpaceOnUse">
<stop offset="0.1" stop-color="#9E5313"/>
<stop offset="0.3" stop-color="#E7AA39"/>
<stop offset="0.48" stop-color="#F7FC97"/>
<stop offset="0.58" stop-color="#E7AA39"/>
<stop offset="0.88" stop-color="#632507"/>
</linearGradient>
<linearGradient id="paint11_linear_2541_8539" x1="40.1048" y1="32.5568" x2="43.1539" y2="32.394" gradientUnits="userSpaceOnUse">
<stop offset="0.1" stop-color="#9E5313"/>
<stop offset="0.3" stop-color="#E7AA39"/>
<stop offset="0.48" stop-color="#F7FC97"/>
<stop offset="0.58" stop-color="#E7AA39"/>
<stop offset="0.88" stop-color="#632507"/>
</linearGradient>
<linearGradient id="paint12_linear_2541_8539" x1="38.8682" y1="42.0985" x2="46.4029" y2="41.6964" gradientUnits="userSpaceOnUse">
<stop offset="0.1" stop-color="#9E5313"/>
<stop offset="0.3" stop-color="#E7AA39"/>
<stop offset="0.48" stop-color="#F7FC97"/>
<stop offset="0.58" stop-color="#E7AA39"/>
<stop offset="0.88" stop-color="#632507"/>
</linearGradient>
<linearGradient id="paint13_linear_2541_8539" x1="36.488" y1="39.5377" x2="39.8736" y2="39.357" gradientUnits="userSpaceOnUse">
<stop offset="0.1" stop-color="#9E5313"/>
<stop offset="0.3" stop-color="#E7AA39"/>
<stop offset="0.48" stop-color="#F7FC97"/>
<stop offset="0.58" stop-color="#E7AA39"/>
<stop offset="0.88" stop-color="#632507"/>
</linearGradient>
<linearGradient id="paint14_linear_2541_8539" x1="33.5269" y1="50.3855" x2="42.0067" y2="49.9329" gradientUnits="userSpaceOnUse">
<stop offset="0.1" stop-color="#9E5313"/>
<stop offset="0.3" stop-color="#E7AA39"/>
<stop offset="0.48" stop-color="#F7FC97"/>
<stop offset="0.58" stop-color="#E7AA39"/>
<stop offset="0.88" stop-color="#632507"/>
</linearGradient>
<linearGradient id="paint15_linear_2541_8539" x1="31.4508" y1="47.0075" x2="35.2261" y2="46.806" gradientUnits="userSpaceOnUse">
<stop offset="0.1" stop-color="#9E5313"/>
<stop offset="0.3" stop-color="#E7AA39"/>
<stop offset="0.48" stop-color="#F7FC97"/>
<stop offset="0.58" stop-color="#E7AA39"/>
<stop offset="0.88" stop-color="#632507"/>
</linearGradient>
<linearGradient id="paint16_linear_2541_8539" x1="27.1009" y1="58.0128" x2="36.3071" y2="57.5214" gradientUnits="userSpaceOnUse">
<stop offset="0.1" stop-color="#9E5313"/>
<stop offset="0.3" stop-color="#E7AA39"/>
<stop offset="0.48" stop-color="#F7FC97"/>
<stop offset="0.58" stop-color="#E7AA39"/>
<stop offset="0.88" stop-color="#632507"/>
</linearGradient>
<linearGradient id="paint17_linear_2541_8539" x1="25.3442" y1="53.8934" x2="29.5521" y2="53.6688" gradientUnits="userSpaceOnUse">
<stop offset="0.1" stop-color="#9E5313"/>
<stop offset="0.3" stop-color="#E7AA39"/>
<stop offset="0.48" stop-color="#F7FC97"/>
<stop offset="0.58" stop-color="#E7AA39"/>
<stop offset="0.88" stop-color="#632507"/>
</linearGradient>
<linearGradient id="paint18_linear_2541_8539" x1="19.9595" y1="64.5764" x2="29.8652" y2="64.0477" gradientUnits="userSpaceOnUse">
<stop offset="0.1" stop-color="#9E5313"/>
<stop offset="0.3" stop-color="#E7AA39"/>
<stop offset="0.48" stop-color="#F7FC97"/>
<stop offset="0.58" stop-color="#E7AA39"/>
<stop offset="0.88" stop-color="#632507"/>
</linearGradient>
<linearGradient id="paint19_linear_2541_8539" x1="18.4782" y1="59.7021" x2="23.3002" y2="59.4447" gradientUnits="userSpaceOnUse">
<stop offset="0.1" stop-color="#9E5313"/>
<stop offset="0.3" stop-color="#E7AA39"/>
<stop offset="0.48" stop-color="#F7FC97"/>
<stop offset="0.58" stop-color="#E7AA39"/>
<stop offset="0.88" stop-color="#632507"/>
</linearGradient>
</defs>
</svg>