<svg width="1em" height="1em" viewBox="0 0 30 30" fill="none" xmlns="http://www.w3.org/2000/svg">
<path fill-rule="evenodd" clip-rule="evenodd" d="M22.6631 3.90039C24.4233 3.90966 26.1108 4.59914 27.3682 5.82283C28.6257 7.04652 29.3543 8.70834 29.3999 10.4564C29.3999 14.129 26.8564 17.4753 22.5256 17.4753C20.7525 17.4043 19.0766 16.651 17.8524 15.3747C16.6281 14.0985 15.9514 12.3993 15.9653 10.6364C15.9791 8.87356 16.6826 7.18511 17.9268 5.92807C19.171 4.67102 20.8585 3.94388 22.6326 3.90039H22.6631ZM20.5931 15.3431C21.8271 15.8768 23.215 15.9439 24.4952 15.5316C25.7755 15.1192 26.8598 14.2561 27.5439 13.1046C28.659 11.3063 28.4528 8.67325 27.2231 7.87651C28.1091 12.528 24.8018 15.6922 20.5931 15.3431ZM9.3192 13.7952C6.26394 15.7984 3.89608 14.554 2.74272 10.6158C1.80322 12.7329 3.65932 14.8347 7.02011 15.4569C7.1194 16.8531 6.72222 17.187 5.40082 16.8759C3.34616 16.3827 0.817923 14.2125 0.901942 11.5643C0.937863 10.1198 1.50854 8.73916 2.50482 7.68643C3.50109 6.63369 4.85306 5.98276 6.30212 5.85812C7.68212 5.75578 9.04901 6.18366 10.1207 7.05344C11.1923 7.92322 11.887 9.16852 12.0613 10.5323C12.1009 10.8527 12.1195 11.1771 12.1389 11.515L12.1389 11.5151L12.1389 11.5151L12.1389 11.5152C12.1457 11.6335 12.1526 11.7534 12.1606 11.8754L14.7041 11.6478C14.8178 11.6211 14.936 11.6193 15.0505 11.6423C15.165 11.6654 15.2732 11.7128 15.3675 11.7812C15.4619 11.8497 15.5401 11.9377 15.597 12.0391C15.6539 12.1405 15.688 12.2529 15.697 12.3686C15.973 13.6447 16.6144 14.8142 17.5441 15.7364C18.4737 16.6586 19.6519 17.2941 20.9368 17.5664C21.0746 17.5815 21.208 17.6235 21.3293 17.6902C21.4506 17.7569 21.5573 17.8469 21.6433 17.9549C21.7292 18.0629 21.7928 18.1868 21.8302 18.3194C21.8675 18.452 21.878 18.5907 21.861 18.7274C21.9454 20.2699 21.5344 21.7993 20.6874 23.0948C19.8404 24.3904 18.6012 25.3853 17.1483 25.936C15.7094 26.4765 14.1345 26.5471 12.6524 26.1378C11.1704 25.7284 9.85827 24.8603 8.90671 23.6596C7.94363 22.4081 7.39301 20.8917 7.33013 19.3176C7.26724 17.7435 7.69517 16.1885 8.55538 14.8651C8.66581 14.7027 8.78135 14.5429 8.93007 14.3372L8.93008 14.3372L8.93013 14.3371C9.03856 14.1871 9.16462 14.0127 9.3192 13.7952ZM20.4174 19.8656C19.9577 20.9899 19.1753 21.9551 18.1674 22.6408C17.1595 23.3265 15.9709 23.7025 14.7494 23.722C13.528 23.7414 12.3279 23.4033 11.2984 22.75C10.269 22.0967 9.45582 21.1569 8.96018 20.0477C8.89907 22.491 11.5725 24.7523 14.5742 24.813C17.576 24.8737 20.4098 22.6352 20.4174 19.9035V19.8656Z" fill="url(#paint0_linear_2541_9052)"/>
<defs>
<linearGradient id="paint0_linear_2541_9052" x1="15.1499" y1="3.90039" x2="15.1499" y2="26.4004" gradientUnits="userSpaceOnUse">
<stop offset="0.265625" stop-color="white"/>
<stop offset="0.869792" stop-color="#DBDBDB"/>
</linearGradient>
</defs>
</svg>