<svg width="1.2em" height="1em" viewBox="0 0 43 30" fill="none" xmlns="http://www.w3.org/2000/svg">
         {/* width="43" height="30" */}
<g clip-path="url(#clip0_2541_9089)">
<path d="M39.0187 17.0981V6.33801C37.0707 5.80839 36.3118 3.89045 36.6863 2.4246C37.0704 0.923507 38.4893 -0.119409 40.0561 0.010996C41.6229 0.1414 42.8239 1.32465 42.9813 2.85234C43.1526 4.51171 42.127 5.87695 40.6534 6.30213V6.50206C40.6534 11.5369 40.6518 16.5717 40.6486 21.6066C40.646 22.8359 39.7047 23.8394 38.5479 24.0013C38.4005 24.0207 38.2522 24.0314 38.1036 24.0333C37.8539 24.0384 37.6043 24.0349 37.3402 24.0349C37.3402 24.2643 37.3402 24.4812 37.3402 24.6984C37.3364 25.5203 37.3402 26.3421 37.3248 27.1636C37.313 27.7939 37.08 28.3527 36.6946 28.8429C36.1745 29.5045 35.4828 29.8768 34.6528 29.9883C34.4905 30.0101 34.3228 29.9947 34.1573 29.9947H7.88237C7.2691 29.9947 6.65571 29.9941 6.04222 29.9928C4.8099 29.989 3.67873 29.1418 3.27543 27.9762C3.16012 27.6395 3.1037 27.2853 3.10867 26.9294C3.11603 25.99 3.11027 25.0503 3.10867 24.1099C3.10867 24.0938 3.10578 24.0778 3.1013 24.0339C2.95822 24.0339 2.81131 24.0307 2.66471 24.0339C2.30782 24.0432 1.95412 24.0301 1.61291 23.9058C0.810788 23.6148 0.277216 23.0666 0.0262718 22.2483C0.0118213 22.1923 0.00535257 22.1344 0.00706375 22.0766C0.00706375 21.0888 0.0201884 20.1006 0.000343265 19.1135C-0.00893913 18.6518 0.170944 18.2772 0.429571 17.928C0.776861 17.4495 1.2921 17.1202 1.87186 17.0062C2.11353 16.9565 2.36767 16.9645 2.61638 16.953C2.7745 16.946 2.93326 16.953 3.1109 16.953V16.7473C3.1109 15.829 3.11667 14.9107 3.10899 13.9918C3.09811 12.6516 4.0417 11.3841 5.44014 11.0627C5.68396 11.0104 5.93274 10.9848 6.18209 10.9864C7.40289 10.9791 8.62401 10.9832 9.84512 10.9836H9.98595C9.98948 10.915 9.99428 10.8586 9.99428 10.8022C9.99428 10.0124 9.98244 9.22197 9.99748 8.43121C10.0132 7.59304 10.6697 6.9894 11.451 6.9894C12.9339 6.9894 14.4165 6.98747 15.9001 6.9926C16.0365 6.9926 16.08 6.95479 16.1181 6.81862C16.5752 5.18712 17.633 4.1567 19.292 3.83342C20.6511 3.56844 21.8527 3.96895 22.8472 4.94426C23.3865 5.4693 23.7592 6.14191 23.9185 6.8779C23.9307 6.91638 23.9457 6.95387 23.9636 6.99004H28.5984C29.2824 6.99004 29.8932 7.51486 29.9943 8.19251C30.0143 8.31855 30.025 8.44588 30.0263 8.57347C30.0292 9.3684 30.0263 10.1636 30.0263 10.9842H30.3202C31.6325 10.9842 32.9448 10.9884 34.2572 10.9826C35.1249 10.9791 35.8685 11.2738 36.4763 11.8909C37.0675 12.4914 37.3447 13.2238 37.3437 14.0649C37.3437 14.9723 37.3437 15.8801 37.3437 16.7883V16.9469C37.9077 16.9838 38.4672 16.8739 39.0187 17.0981ZM24.4911 20.702C24.4911 19.1214 24.4911 17.5413 24.4911 15.9617C24.491 15.818 24.4775 15.6747 24.4508 15.5336C24.2322 14.3853 23.2681 13.6077 22.095 13.6189C20.8844 13.6307 19.6739 13.6189 18.4633 13.623C18.2722 13.6191 18.081 13.6304 17.8917 13.657C17.3894 13.7368 16.9292 13.985 16.5864 14.3609C16.1306 14.8492 15.9571 15.4356 15.9593 16.0956C15.9664 18.1443 15.9622 20.1929 15.9625 22.2416C15.9625 23.0529 15.96 23.8644 15.9625 24.6767C15.9625 25.0554 15.9334 25.4402 15.9897 25.8112C16.1712 27.0086 17.1833 27.7942 18.3059 27.7865C19.607 27.7772 20.9081 27.7865 22.2109 27.7827C22.3488 27.7852 22.4866 27.7729 22.6219 27.7458C23.7482 27.4956 24.4783 26.5779 24.4886 25.461C24.5007 23.8731 24.4911 22.2874 24.4911 20.702ZM35.2779 20.7001H35.2802C35.2802 19.4403 35.283 18.1801 35.2785 16.9194C35.2785 16.4618 35.2994 15.9985 35.2379 15.5477C35.0919 14.476 34.1563 13.6384 33.0361 13.6253C31.7557 13.6096 30.4754 13.6205 29.1951 13.623C29.0412 13.6246 28.8877 13.6353 28.7351 13.6551C27.6449 13.7893 26.7644 14.7903 26.7644 15.8928C26.7644 19.1017 26.7644 22.3107 26.7644 25.5196C26.7633 25.6527 26.7756 25.7854 26.8012 25.916C27.0281 27.0054 27.9765 27.7891 29.0862 27.7839C30.3666 27.7782 31.6469 27.7782 32.9272 27.7839C33.5568 27.7862 34.101 27.5795 34.5564 27.1463C35.0247 26.701 35.275 26.155 35.276 25.5049C35.2783 23.9029 35.2786 22.3013 35.2766 20.7001H35.2779ZM13.6794 20.6928C13.6794 19.1877 13.6794 17.6828 13.6794 16.1779C13.6794 15.9966 13.6954 15.8124 13.6695 15.6333C13.5924 15.0733 13.3148 14.5604 12.8882 14.19C12.4616 13.8197 11.9151 13.617 11.3505 13.6198C10.0653 13.6237 8.7802 13.6198 7.49507 13.6221C7.34637 13.6192 7.19776 13.6312 7.05144 13.658C5.91547 13.8925 5.16999 14.8281 5.16615 15.9117C5.15527 19.093 5.16168 22.2743 5.16392 25.4552C5.16236 25.5989 5.17468 25.7424 5.20072 25.8836C5.42478 27.023 6.39559 27.7859 7.48739 27.7817C8.74051 27.7772 9.99364 27.7721 11.2464 27.7843C11.9103 27.7907 12.4896 27.5978 12.9691 27.1383C13.3987 26.7263 13.6573 26.222 13.6733 25.6203C13.6896 24.9599 13.6803 24.2989 13.681 23.6382C13.6797 22.6569 13.6787 21.6751 13.6781 20.6928H13.6794ZM38.1542 2.60947C38.222 2.60018 38.2902 2.59313 38.3574 2.58064C38.7159 2.51431 39.0187 2.33168 39.2994 2.11189C39.5606 1.90715 39.7901 1.66909 39.9057 1.34932C40.0382 0.982141 39.834 0.750167 39.4447 0.794703C39.1718 0.828827 38.9097 0.922213 38.6765 1.06833C38.2896 1.30158 37.9506 1.58642 37.7691 2.01576C37.6148 2.37942 37.764 2.6021 38.1529 2.60947H38.1542Z" fill="url(#paint0_linear_2541_9089)"/>
<path d="M21.1728 18.0449C20.6213 18.0449 20.0989 18.0484 19.5768 18.0423C19.4626 18.0423 19.4472 18.0833 19.4488 18.1826C19.4552 18.4909 19.4514 18.7994 19.4514 19.1195H17.8433V16.6543H22.8301C22.8301 17.1391 22.8301 17.6181 22.8285 18.0961C22.8249 18.1328 22.812 18.168 22.7911 18.1983C22.1829 19.1957 21.7841 20.2829 21.4199 21.3847C21.1846 22.0967 20.9564 22.8125 20.852 23.5574C20.8021 23.9147 20.7986 24.2783 20.7743 24.6388C20.7723 24.6644 20.7698 24.69 20.7666 24.7262H18.8243C18.848 24.4981 18.8611 24.2671 18.897 24.0399C19.0785 22.8961 19.4238 21.7987 19.8947 20.7446C20.281 19.8795 20.707 19.0314 21.1151 18.1759C21.1337 18.141 21.1475 18.1016 21.1728 18.0449Z" fill="url(#paint1_linear_2541_9089)"/>
<path d="M31.9638 18.0506H30.2591V19.1214H28.6558V16.6543H33.6337C33.6382 16.7049 33.6452 16.7504 33.6452 16.7966C33.6452 17.1916 33.6484 17.5867 33.6423 17.9821C33.6419 18.0607 33.6214 18.1379 33.5828 18.2063C32.9951 19.1765 32.5979 20.23 32.2484 21.3011C32.0426 21.9323 31.8627 22.5747 31.718 23.2235C31.6239 23.6452 31.6127 24.0854 31.5669 24.5177C31.5632 24.5884 31.5632 24.6593 31.5669 24.7301H29.6307C29.6768 23.932 29.8484 23.1617 30.0788 22.4043C30.4153 21.303 30.8839 20.256 31.3963 19.2275C31.5758 18.8678 31.7553 18.5078 31.935 18.1477C31.947 18.1161 31.9566 18.0837 31.9638 18.0506Z" fill="url(#paint2_linear_2541_9089)"/>
<path d="M10.3721 18.0506H8.65644V19.1192H7.05859V16.6543H12.0416C12.0416 17.0205 12.0308 17.3771 12.0455 17.7328C12.056 17.9754 11.9936 18.2156 11.8662 18.4223C11.2443 19.4956 10.8385 20.6606 10.4787 21.841C10.314 22.3748 10.1775 22.917 10.0696 23.4651C9.99055 23.8752 9.98255 24.2982 9.94158 24.7275H7.99995C8.08317 24.236 8.14495 23.7538 8.24834 23.2806C8.54569 21.9237 9.09752 20.66 9.70184 19.4178C9.91149 18.9875 10.1272 18.5604 10.3401 18.1314C10.3513 18.1089 10.3586 18.0852 10.3721 18.0506Z" fill="url(#paint3_linear_2541_9089)"/>
</g>
<defs>
<linearGradient id="paint0_linear_2541_9089" x1="21.5" y1="0" x2="21.5" y2="30" gradientUnits="userSpaceOnUse">
<stop offset="0.265625" stop-color="white"/>
<stop offset="0.869792" stop-color="#DBDBDB"/>
</linearGradient>
<linearGradient id="paint1_linear_2541_9089" x1="20.3367" y1="16.6543" x2="20.3367" y2="24.7262" gradientUnits="userSpaceOnUse">
<stop offset="0.265625" stop-color="white"/>
<stop offset="0.869792" stop-color="#DBDBDB"/>
</linearGradient>
<linearGradient id="paint2_linear_2541_9089" x1="31.1509" y1="16.6543" x2="31.1509" y2="24.7301" gradientUnits="userSpaceOnUse">
<stop offset="0.265625" stop-color="white"/>
<stop offset="0.869792" stop-color="#DBDBDB"/>
</linearGradient>
<linearGradient id="paint3_linear_2541_9089" x1="9.55261" y1="16.6543" x2="9.55261" y2="24.7275" gradientUnits="userSpaceOnUse">
<stop offset="0.265625" stop-color="white"/>
<stop offset="0.869792" stop-color="#DBDBDB"/>
</linearGradient>
<clipPath id="clip0_2541_9089">
<rect width="43" height="30" fill="white"/>
</clipPath>
</defs>
</svg>