<svg xmlns="http://www.w3.org/2000/svg" width="1em" height="1em" viewBox="0 0 40 40" fill="none">
<path d="M23.8753 26.5634C24.1018 28.0732 24.6562 29.4629 25.4314 30.7782C26.0891 31.8952 26.6985 33.0299 27.1031 34.2679C27.3097 34.9018 27.1088 35.4286 26.6862 35.8308C25.5196 36.9394 25.2732 36.9794 24.2866 35.7451C23.7465 35.0693 23.3162 34.3089 22.8424 33.5837C22.5581 33.1555 22.505 33.1518 22.143 33.5465C21.4663 34.2828 20.9394 35.1289 20.3206 35.9108C20.2059 36.056 20.0789 36.1901 19.9586 36.3316C19.7757 36.5177 19.5918 36.6378 19.4013 36.3409C18.9436 35.5878 18.882 34.7194 18.6659 33.8956C18.5949 33.6284 18.5494 33.3547 18.4764 33.0885C18.4347 32.934 18.5712 32.6911 18.3665 32.6399C18.2101 32.6017 18.0992 32.826 17.9779 32.9396C17.396 33.4841 16.8255 34.0408 16.2484 34.5918C16.0952 34.7474 15.9332 34.8944 15.7632 35.0321C15.3661 35.3346 15.1074 35.2443 15.0714 34.764C15.0131 34.0998 15.0236 33.4314 15.1027 32.7693C15.1832 32.1605 15.2695 31.5526 15.3652 30.861C14.7255 31.2818 14.2422 31.7649 13.7219 32.2024C13.0642 32.7562 12.4169 33.3194 11.7488 33.8639C11.3195 34.2111 11.2086 34.1757 11.0153 33.6843C10.6675 32.8 10.731 31.8859 10.9272 30.9932C11.1368 30.0908 11.2172 29.164 11.166 28.2398C10.7613 28.4325 10.4742 28.7573 10.1548 29.0338C9.83218 29.3268 9.46435 29.5678 9.06499 29.7478C8.78637 29.865 8.71151 29.8176 8.60442 29.5355C8.05666 28.0909 8.44331 26.6993 8.84797 25.3272C9.67151 22.5347 11.1167 20.0429 12.7268 17.632C12.7865 17.5389 12.8358 17.4458 12.8898 17.3527C12.9038 17.2527 12.9431 17.1578 13.004 17.0765C13.0649 16.9952 13.1455 16.9302 13.2386 16.8873L13.375 16.7105C13.5011 16.2199 13.9152 15.9099 14.228 15.5739C15.4505 14.2558 16.7289 12.9899 18.3579 12.1298C20.7091 10.8844 23.1456 10.5204 25.711 11.3721C26.31 11.5697 26.8682 11.8711 27.359 12.262C28.0451 12.8093 28.3493 13.5521 28.5104 14.3731C28.6687 14.967 29.0791 15.3971 29.5169 15.7917C30.0391 16.2571 30.5953 16.6946 31.1459 17.1321C31.4824 17.3881 31.7917 17.6769 32.069 17.9941C32.2983 18.264 32.2083 18.3664 31.888 18.3804C31.0066 18.4111 30.1243 18.4381 29.2421 18.4735C28.2214 18.5181 27.1989 18.5665 26.2095 18.8356C26.1234 18.8654 26.0398 18.9014 25.9593 18.9435C25.9053 19.0102 25.8366 19.064 25.7584 19.1008C25.491 19.2348 25.2371 19.3935 25.0002 19.5746C24.0317 20.2262 23.2404 21.0733 22.3704 21.8338C21.9828 22.1717 21.6123 22.5291 21.2124 22.8577C20.4959 23.4451 19.5871 23.4739 18.8147 22.9368C18.5655 22.7507 18.3115 22.5645 18.0073 22.3057C18.1872 22.6055 18.4143 22.8753 18.6802 23.1053C19.2374 23.6126 19.8903 23.728 20.6153 23.5838C21.1398 23.4734 21.6542 23.3212 22.1534 23.1286C22.5107 22.9955 22.7438 23.0746 22.9059 23.4385C23.2984 24.3185 23.6213 25.2269 23.8715 26.1557C23.9076 26.2897 23.9474 26.4275 23.8753 26.5634Z" fill="#FDFDFD"/>
<path d="M26.2728 19.1554C27.2618 18.8908 28.2589 18.7706 29.3175 18.9467C29.1391 19.3343 28.7976 19.462 28.5577 19.6978C28.0226 20.228 27.9789 20.337 28.2901 21.0573C28.7976 22.2676 29.1985 23.5236 29.4879 24.8099C29.7554 25.9598 29.058 26.4602 28.0529 26.4387C27.3552 26.4149 26.674 26.2106 26.0703 25.8442C25.9455 25.8386 25.851 25.7594 25.7493 25.6979C25.6601 25.6327 25.5807 25.5637 25.4951 25.4994C24.1315 23.9153 23.8104 21.9211 24.8833 20.0994C24.9636 19.9931 25.0617 19.9028 25.1509 19.8049C25.1789 19.7722 25.2087 19.7411 25.2401 19.7117C25.3292 19.6269 25.4122 19.5356 25.5022 19.4517C25.6285 19.3479 25.7726 19.2701 25.9268 19.2225C26.0374 19.1796 26.1622 19.2113 26.2728 19.1554Z" fill="#FDFDFD"/>
<path d="M17.8029 6.06753C17.8312 4.8466 18.8322 3.72828 20.2117 3.38205C21.1378 3.14707 22.3684 3.78679 22.9599 4.76315C23.4366 5.54962 23.4356 6.46268 23.7255 7.29614C23.7494 7.35152 23.778 7.40479 23.8111 7.45535C23.8729 7.50913 23.9235 7.57429 23.96 7.64717C24.2966 8.49214 24.675 9.32272 24.9328 10.1945C25.1157 10.8228 24.9328 10.9954 24.2849 10.8717C22.2925 10.488 20.5055 9.68718 18.9937 8.33293C18.5048 7.88779 18.1246 7.33918 17.8817 6.72835C17.7883 6.50392 17.8068 6.28717 17.8029 6.06753Z" fill="#FDFDFD"/>
<path d="M12.4117 12.4164C12.1207 12.1967 11.9195 11.8779 11.846 11.5199C11.6958 10.8419 11.709 10.1377 11.8845 9.46576C12.1737 8.24817 13.0932 7.78685 14.2054 7.56055C15.1181 7.37486 15.972 7.65726 16.8385 7.85648C18.1204 8.11374 19.1006 8.87389 19.9448 9.81103C20.6956 10.6447 20.6571 10.7104 19.5593 11.0238C18.3064 11.3807 17.172 12.0489 15.9132 12.3778C14.9417 12.6282 13.9741 12.9687 12.9428 12.7114C12.7394 12.6553 12.5341 12.6137 12.4117 12.4164Z" fill="#FDFDFD"/>
<path d="M28.5484 13.372C28.093 12.6062 27.3285 12.141 26.6329 11.6117C25.6263 10.8459 24.7542 9.98438 24.3406 8.77255C24.228 8.44518 24.1822 8.13313 24.3685 7.82107C25.0353 7.01223 25.8316 6.44173 26.9598 6.36898C27.8229 6.3125 28.3631 6.70879 28.7657 7.3731C29.4733 8.54186 29.5969 9.82166 29.5291 11.133C29.4903 11.8912 29.3766 12.6301 28.9999 13.327C28.8175 13.6639 28.7258 13.5979 28.5484 13.372Z" fill="#FDFDFD"/>
<path d="M25.38 14.7856C25.3984 14.2187 25.6948 13.9384 26.1944 13.9394C26.6011 13.9394 26.9223 14.3211 26.892 14.767C26.8617 15.2129 26.4918 15.4849 25.9922 15.4518C25.5087 15.4177 25.3638 15.126 25.38 14.7856Z" fill="#060606"/>
</svg>