<svg width="1em" height="1em" viewBox="0 0 35 30" fill="none" xmlns="http://www.w3.org/2000/svg">
<g clip-path="url(#clip0_2541_9016)">
<path d="M35.0002 4.33047V24.6405C34.4002 26.4205 33.1302 27.0605 31.2902 26.9505C29.6402 26.8605 27.9702 26.9505 26.2902 26.9505H22.2902L22.1403 27.4505C23.0071 28.3453 24.0676 29.0295 25.2402 29.4505L25.0502 29.8905H12.6102L12.4702 29.5805L15.4702 27.5105L15.2402 26.9405C12.2402 26.9405 9.24023 26.9405 6.17023 26.9405C3.60023 26.9405 2.79024 26.1605 2.75024 23.5605C2.71024 20.9605 2.75024 18.3405 2.75024 15.7405C2.76334 15.1948 2.67166 14.6516 2.48022 14.1405C1.69022 12.4005 0.830234 10.6905 -0.00976562 8.98047V7.31047C0.412486 4.39244 1.96836 1.75862 4.32025 -0.0195312H13.9902C14.4574 0.647575 15.0933 1.17869 15.833 1.51953C16.5727 1.86038 17.3896 1.99874 18.2003 1.92047C22.5603 1.79047 26.9202 1.92048 31.2802 1.85048C33.2102 1.83048 34.5002 2.41047 35.0002 4.33047ZM17.5902 4.61047C18.4445 7.4775 18.1281 10.5662 16.7103 13.2005C17.5003 12.6105 18.1102 11.6205 18.8402 11.5205C20.753 11.3671 22.6739 11.3403 24.5902 11.4405L23.0203 13.5805L23.1102 13.9005L30.1802 11.1905C29.9602 12.4805 29.3202 13.1405 26.1802 15.1905C19.4302 19.6405 12.4303 20.4205 5.02026 16.2705C5.07168 17.1964 5.07168 18.1245 5.02026 19.0505C4.86026 20.5305 5.32023 21.0505 6.92023 21.0505C14.9202 20.9705 22.9202 21.0505 30.9202 21.0505C31.5002 21.0505 32.0802 20.9805 32.7502 20.9305C32.7502 15.7305 32.7502 10.7405 32.7502 5.74048C32.7502 5.36048 32.1202 4.67047 31.7502 4.67047C27.0402 4.58047 22.4402 4.64047 17.5902 4.64047V4.61047ZM15.0502 4.47047C15.1002 3.04047 14.5302 2.60047 12.4802 2.47047C11.3402 2.40047 9.48022 4.01048 9.48022 5.05048C9.48022 6.51048 10.2903 7.05047 12.5703 7.20047C12.9149 7.19187 13.2542 7.11349 13.5677 6.97005C13.8812 6.8266 14.1623 6.62107 14.3941 6.36589C14.6259 6.11071 14.8036 5.81118 14.9164 5.4854C15.0292 5.15962 15.0747 4.81435 15.0502 4.47047ZM9.98022 8.05048C9.59022 8.48048 8.83024 8.93047 8.68024 9.54047C8.40024 10.6305 10.1303 12.1405 11.5203 12.2105C11.7805 12.2151 12.0388 12.1658 12.2792 12.0659C12.5195 11.9659 12.7366 11.8174 12.9169 11.6297C13.0971 11.4419 13.2367 11.2189 13.3267 10.9747C13.4168 10.7305 13.4554 10.4703 13.4402 10.2105C13.5102 8.12048 11.5802 8.64048 9.98022 8.05048ZM5.89026 14.4205C7.35026 14.0805 8.71024 14.1205 8.75024 12.6605C8.79144 12.3992 8.77674 12.1321 8.70709 11.8769C8.63744 11.6217 8.51442 11.3842 8.34619 11.18C8.17796 10.9759 7.96832 10.8097 7.73114 10.6926C7.49396 10.5755 7.23458 10.51 6.97021 10.5005C5.37021 10.5005 3.92023 11.5605 4.17023 12.8205C4.30023 13.4405 5.29026 13.8905 5.89026 14.4205ZM10.7202 1.30048C9.14021 0.300476 6.83024 0.510478 6.00024 1.74048C5.72363 2.19203 5.63057 2.73241 5.74023 3.25047C5.82023 3.51047 6.51026 3.69048 6.95026 3.74048C8.78026 3.92048 9.63021 2.54048 10.7202 1.30048ZM3.19025 7.30048C3.83347 6.34941 4.39545 5.34586 4.87024 4.30048C4.97024 4.00048 4.30022 3.44047 3.98022 3.00047C3.30022 3.93047 2.57022 4.83047 1.98022 5.81047C1.91022 5.95047 2.51025 6.49047 3.19025 7.31047V7.30048ZM1.86023 7.94048L1.48022 8.38048L2.79022 12.2805C3.91022 10.9205 4.48026 9.79047 3.58026 8.58047C3.27026 8.18048 2.45023 8.15047 1.86023 7.95047V7.94048ZM15.7502 11.7505L15.3802 11.2505C13.7302 11.2505 13.5802 12.7005 12.9302 13.6705L13.3203 14.0705L15.7502 11.7505ZM20.3502 23.9705C19.5802 23.5505 19.1502 23.1205 18.7902 23.1705C18.4302 23.2205 18.1302 23.7405 17.7902 24.0505C18.1202 24.3005 18.4502 24.7405 18.7902 24.7405C19.1302 24.7405 19.5802 24.3905 20.3502 23.9805V23.9705Z" fill="url(#paint0_linear_2541_9016)"/>
</g>
<defs>
<linearGradient id="paint0_linear_2541_9016" x1="17.4952" y1="-0.0195313" x2="17.4952" y2="29.8905" gradientUnits="userSpaceOnUse">
<stop offset="0.265625" stop-color="white"/>
<stop offset="0.869792" stop-color="#DBDBDB"/>
</linearGradient>
<clipPath id="clip0_2541_9016">
<rect width="35" height="29.91" fill="white"/>
</clipPath>
</defs>
</svg>
