<svg width="1em" height="1em" viewBox="0 0 30 30" fill="none" xmlns="http://www.w3.org/2000/svg">
<g clip-path="url(#clip0_2541_9044)">
<path d="M28.2606 7.78104C28.0349 7.69821 27.8003 7.64396 27.562 7.61945C25.974 7.61945 24.3802 7.61945 22.7922 7.66135C22.3149 7.7389 21.8491 7.87969 21.4063 8.08026C21.1523 8.16404 20.8982 8.35555 20.725 7.92467C20.6845 7.82891 20.4016 7.76907 20.2515 7.79899C17.7569 8.34956 15.4644 9.29512 13.8534 11.4735C13.5137 12.026 13.2145 12.6041 12.9583 13.203L11.89 11.0965H11.7341L11.353 12.82H11.174L10.4406 11.4136L10.2616 12.8978L10.9199 13.209C10.764 13.5022 10.689 13.9152 10.458 14.0588C9.62068 14.5615 8.82956 15.2557 7.72663 14.9325C7.4883 14.8574 7.23185 14.8734 7.00398 14.9778C6.77611 15.0821 6.592 15.2678 6.48514 15.5011C6.09248 16.2551 5.75757 17.0391 5.4111 17.8171C5.30139 18.0624 5.23786 18.3377 5.15124 18.5951L4.92603 18.5651V14.7111L0.779967 15.0223C0.404627 14.4598 0.664458 14.0887 1.12064 13.9391C2.27553 13.5561 3.5055 13.2449 4.70082 12.9158C4.93757 12.8499 5.19165 12.832 5.27826 12.6824C5.66515 11.5573 6.04049 10.4262 6.43316 9.30111C6.56477 8.95542 6.71911 8.61949 6.89511 8.2957C7.98648 6.26695 8.18862 4.07063 8.0789 1.79651C8.12023 1.38348 8.22346 0.979651 8.38493 0.599609C8.73019 0.75465 9.05437 0.955841 9.34926 1.19806C10.1168 2.01579 10.8379 2.87902 11.5089 3.78338C11.8165 4.33675 12.0662 4.92256 12.2538 5.53086C13.247 5.43511 14.4077 5.27352 15.5684 5.21966C19.6105 5.02217 23.6526 4.8965 27.6312 5.87796C28.0353 5.98286 28.4238 6.1439 28.7861 6.35672C28.9503 6.45571 29.0866 6.59763 29.1813 6.76828C29.276 6.93893 29.3258 7.13234 29.3258 7.3292C29.3258 7.52606 29.276 7.71948 29.1813 7.89013C29.0866 8.06078 28.9503 8.20269 28.7861 8.30169C27.5389 9.06172 26.2396 9.74396 24.923 10.3843C24.7267 10.4801 24.3456 10.1629 24.0453 10.0312C23.8836 9.96538 23.7335 9.81577 23.5718 9.81577C23.1502 9.81577 22.6941 10.2467 22.3245 9.68412C21.493 10.097 20.4132 9.51654 19.6509 10.3783L20.4478 10.8631L20.3958 11.0306L21.1869 10.8511L21.2505 11.3478L21.9145 11.2221C21.9492 12.7123 20.4767 12.5986 19.6913 13.1851C18.8779 13.8646 17.9095 14.3159 16.8792 14.4957C16.211 14.5972 15.5667 14.8265 14.9794 15.1719C15.5568 16.0696 16.654 16.6262 16.4461 18.0026C16.1285 17.9068 15.8687 17.853 15.6204 17.7512C15.1663 17.5752 14.721 17.3755 14.2865 17.1528C12.5079 16.2013 11.3703 16.9015 10.3078 18.1283C9.88903 18.6072 9.51762 19.1285 9.19915 19.6842C8.17707 21.4796 8.85265 23.3647 10.8275 24.1367C11.3484 22.2103 12.4614 20.5126 13.9977 19.3012C13.8765 19.7261 13.7841 20.175 13.6282 20.5879C12.7851 22.8141 12.1037 25.0703 12.6811 27.5C12.8197 28.0985 13.0103 28.6969 13.1835 29.2954C12.2076 29.5108 12.0691 29.445 11.6533 28.5892C11.541 28.4051 11.459 28.2028 11.4107 27.9908C11.174 26.0039 9.67843 25.6927 8.15397 25.3097L7.871 25.9441C6.97595 25.6389 6.20795 24.1487 6.24837 22.6825L6.56021 22.88C6.47062 21.9127 6.47062 20.9388 6.56021 19.9715C6.88936 18.1043 8.17707 16.8835 9.74195 16.1474C11.6706 15.2377 13.709 14.5854 15.6954 13.8194C17.0351 13.3047 18.3748 12.7781 19.7087 12.2515C19.8089 12.2023 19.9038 12.1421 19.9916 12.0719L18.2073 10.2287L19.3622 9.73798V9.57041L18.4729 9.76191L18.421 9.52851C19.3246 9.20847 20.2571 8.98391 21.2043 8.85825C22.7634 8.79242 24.3282 8.95998 25.8873 9.0318C25.9797 9.0318 26.0895 9.09763 26.1588 9.0318C26.9037 8.69068 27.6428 8.33162 28.3819 7.97254L28.2606 7.78104ZM26.1183 9.40284L26.1818 9.55246L28.4108 8.39744L28.33 8.22987L26.1183 9.40284Z" fill="url(#paint0_linear_2541_9044)"/>
<path d="M17.924 25.0582C17.3417 25.0224 16.7627 24.9424 16.1917 24.8188C15.8163 24.7171 15.3081 24.4717 15.2042 24.1665C14.9822 23.5207 14.9071 22.8305 14.9848 22.1497C15.0642 21.5365 15.3591 20.9752 15.813 20.5733C16.2669 20.1714 16.8479 19.957 17.4447 19.9714C18.003 19.9677 18.5463 20.1587 18.9872 20.5136C19.4281 20.8685 19.7411 21.3668 19.8758 21.9283C20.3551 23.8553 19.3792 25.519 17.6815 25.6447C17.4728 25.649 17.2642 25.6349 17.0578 25.6028L18.7267 25.1659L18.6862 24.9625L17.8836 25.0762L18.565 24.6333C18.9203 24.4217 19.1939 24.0889 19.3391 23.6918C19.4844 23.2946 19.4924 22.8576 19.3618 22.455C19.2633 22.1048 19.0533 21.7994 18.766 21.5886C18.4787 21.3778 18.1311 21.274 17.7796 21.294L17.693 21.8625H17.566L17.2657 21.0606C17.0751 21.6052 17.0347 22.1797 16.746 22.4131C16.4573 22.6465 15.9491 22.4131 15.4814 22.3772C15.3007 22.8072 15.2896 23.2934 15.4504 23.7318C15.6112 24.1702 15.9311 24.526 16.3418 24.7231C16.8562 24.8929 17.3866 25.0052 17.924 25.0582Z" fill="url(#paint1_linear_2541_9044)"/>
<path d="M20.6733 19.3913L21.8687 19.2537C20.1362 19.0383 19.472 18.3979 19.6453 17.0574C19.6804 16.8158 19.7627 16.5842 19.8872 16.3767C20.0117 16.1692 20.1757 15.9903 20.3693 15.8508C20.5628 15.7113 20.7818 15.6142 21.0128 15.5654C21.2438 15.5167 21.482 15.5173 21.7128 15.5672C22.7928 15.7887 23.3876 17.0334 23.0238 18.3022C22.9557 18.5461 22.837 18.7718 22.6761 18.9634C22.5153 19.155 22.316 19.3079 22.0923 19.4116C21.8686 19.5153 21.6257 19.5672 21.3806 19.5637C21.1356 19.5602 20.8942 19.5014 20.6733 19.3913ZM21.2912 18.8587C21.5764 18.8534 21.8526 18.7543 22.08 18.5758C22.3073 18.3972 22.474 18.1484 22.556 17.8653C22.5872 17.7446 22.594 17.6186 22.5762 17.495C22.5583 17.3714 22.516 17.253 22.452 17.1471C22.3636 17.0866 22.2628 17.0481 22.1576 17.0346C22.0525 17.0211 21.9456 17.033 21.8456 17.0693C21.4587 17.201 21.2681 17.1412 21.1237 16.7103C21.0701 16.6302 20.9984 16.5648 20.9149 16.52C20.8313 16.4751 20.7385 16.4521 20.6444 16.4529C20.3724 16.5096 20.1323 16.6736 19.975 16.9104C19.8176 17.1472 19.7553 17.4381 19.8012 17.7217C19.8797 18.0632 20.0724 18.3648 20.3452 18.573C20.618 18.7812 20.9532 18.8824 21.2912 18.8587Z" fill="url(#paint2_linear_2541_9044)"/>
</g>
<defs>
<linearGradient id="paint0_linear_2541_9044" x1="14.9629" y1="0.599609" x2="14.9629" y2="29.3996" gradientUnits="userSpaceOnUse">
<stop offset="0.265625" stop-color="white"/>
<stop offset="0.869792" stop-color="#DBDBDB"/>
</linearGradient>
<linearGradient id="paint1_linear_2541_9044" x1="17.4764" y1="19.9707" x2="17.4764" y2="25.6455" gradientUnits="userSpaceOnUse">
<stop offset="0.265625" stop-color="white"/>
<stop offset="0.869792" stop-color="#DE9634"/>
</linearGradient>
<linearGradient id="paint2_linear_2541_9044" x1="21.3747" y1="15.5293" x2="21.3747" y2="19.5639" gradientUnits="userSpaceOnUse">
<stop offset="0.265625" stop-color="white"/>
<stop offset="0.869792" stop-color="#DE9634"/>
</linearGradient>
<clipPath id="clip0_2541_9044">
<rect width="30" height="30" fill="white"/>
</clipPath>
</defs>
</svg>