<svg  width="81" height="93" viewBox="0 0 81 93" fill="none" xmlns="http://www.w3.org/2000/svg"> 
<path d="M14.6396 61.8686L18.9838 61.7464C19.1291 61.0732 19.4379 60.4461 19.8831 59.9205C20.3282 59.3949 20.8959 58.9869 21.536 58.7327C23.4042 57.8949 25.435 57.4823 27.482 57.5245H27.5906L27.9436 60.8097C26.9323 60.779 25.9254 60.9546 24.9841 61.3256C24.3596 61.6243 24.0746 62.055451 24.1424 62.5746C24.1776 62.8373 24.2888 63.084 24.4625 63.2842C24.6362 63.4844 24.8647 63.6294 25.1198 63.7013C25.8765 63.9269 26.6667 64.0188 27.4549 63.9728C28.1882 63.9824 28.9151 63.8343 29.5862 63.5384C30.2505 63.1486 30.8317 62.632 31.2967 62.018C32.0489 60.5467 33.2019 59.3183 34.6226 58.4748C36.4455 57.546 38.4689 57.0798 40.5144 57.1172C42.4972 56.9843 44.4842 57.3046 46.3247 58.0539C46.9857 58.3052 47.5828 58.6996 48.0734 59.209C48.5639 59.7183 48.9357 60.3299 49.162 60.9998L53.2346 60.8776L53.4111 62.4659L49.3384 62.5746C49.269 63.2797 49.0272 63.9568 48.6341 64.5463C48.2411 65.1358 47.7091 65.6196 47.085 65.9548C45.0703 67.0069 42.8118 67.5035 40.5416 67.3938H40.433L40.08 64.1221C41.2032 64.1782 42.3228 63.9543 43.3381 63.4705C43.617 63.3345 43.8466 63.1151 43.995 62.8426C44.1434 62.5701 44.2032 62.2581 44.1662 61.9501C44.1397 61.6817 44.0338 61.4274 43.8621 61.2195C43.6905 61.0116 43.4608 60.8595 43.2023 60.7826C42.4739 60.5339 41.7033 60.4323 40.9352 60.4839C40.1027 60.4598 39.2745 60.6125 38.5053 60.9319C37.8646 61.3071 37.317 61.8223 36.9034 62.4388C36.098 63.8908 34.9519 65.1253 33.5638 66.0363C31.774 66.9273 29.7929 67.3655 27.7942 67.3124C25.8081 67.4373 23.8199 67.1028 21.9839 66.3349C21.3054 66.0749 20.6944 65.6652 20.1961 65.1364C19.6978 64.6076 19.3252 63.9732 19.1059 63.2805L14.8297 63.4026L14.6396 61.8686Z" fill="white"/>
<path d="M0.806184 63.4563C-0.171247 54.4558 13.9336 46.7314 32.274 46.1884C50.6144 45.6453 66.2126 52.5009 67.2579 61.5014C68.3032 70.5019 54.1441 78.2264 35.7901 78.7558C17.4361 79.2852 1.77004 72.4432 0.806184 63.4563ZM60.8775 61.6915C60.0901 54.4286 47.4106 48.8899 32.6134 49.3243C17.8162 49.7587 6.41287 56.0169 7.20024 63.2662C7.98762 70.5155 20.6535 76.0679 35.4507 75.6335C50.2479 75.199 61.6513 68.9408 60.8775 61.6915Z" fill="#F18E01"/>
<path d="M8.47625 63.226C7.7296 56.3297 18.5899 50.3701 32.6812 49.9492C46.7725 49.5284 58.841 54.8228 59.5877 61.7191C60.3343 68.6155 49.474 74.5886 35.3828 74.9959C21.2915 75.4032 9.20932 70.1359 8.47625 63.226ZM27.4818 57.5243C25.4348 57.4821 23.404 57.8947 21.5358 58.7325C20.8957 58.9867 20.328 59.3947 19.8829 59.9203C19.4378 60.4459 19.1289 61.073 18.9836 61.7463L14.6395 61.8685L14.8159 63.4296L19.0922 63.3074C19.3115 64.0002 19.684 64.6346 20.1823 65.1634C20.6806 65.6922 21.2918 66.1019 21.9702 66.3619C23.8062 67.1298 25.7943 67.4643 27.7805 67.3393C29.7791 67.3925 31.7602 66.9543 33.55 66.0633C34.9382 65.1523 36.0842 63.9177 36.8896 62.4658C37.3032 61.8492 37.8508 61.3341 38.4915 60.9589C39.2607 60.6395 40.0889 60.4868 40.9215 60.5109C41.6895 60.4593 42.4602 60.5608 43.1886 60.8096C43.4471 60.8865 43.6767 61.0386 43.8483 61.2465C44.02 61.4544 44.1259 61.7088 44.1524 61.9771C44.1895 62.2851 44.1297 62.5971 43.9812 62.8695C43.8328 63.142 43.6032 63.3615 43.3243 63.4975C42.3091 63.9813 41.1895 64.2052 40.0662 64.1491L40.4192 67.4208H40.5414C42.8116 67.5305 45.0701 67.0338 47.0848 65.9818C47.7089 65.6466 48.241 65.1629 48.634 64.5733C49.027 63.9838 49.2689 63.3066 49.3383 62.6015L53.4109 62.4929L53.2344 60.9046L49.1618 61.0268C48.9355 60.3568 48.5637 59.7453 48.0732 59.2359C47.5826 58.7266 46.9855 58.3322 46.3245 58.0809C44.484 57.3316 42.497 57.0113 40.5142 57.1442C38.4687 57.1068 36.4453 57.573 34.6225 58.5018C33.2017 59.3454 32.0487 60.5737 31.2965 62.0449C30.8315 62.6589 30.2503 63.1755 29.586 63.5654C28.9149 63.8612 28.188 64.0094 27.4547 63.9998C26.6665 64.0458 25.8763 63.9539 25.1197 63.7283C24.8645 63.6564 24.636 63.5114 24.4623 63.3112C24.2886 63.1109 24.1774 62.8643 24.1423 62.6015C24.0744 62.0721 24.3595 61.6512 24.9839 61.3526C25.9252 60.9815 26.9321 60.806 27.9434 60.8367L27.5904 57.5515L27.4818 57.5243Z" fill="#FDC536"/>
<path d="M7.20006 63.2666C6.41269 56.0174 17.816 49.7591 32.6132 49.3247C47.4104 48.8903 60.0899 54.429 60.8773 61.6919C61.6647 68.9547 50.2477 75.1859 35.4505 75.6339C20.6533 76.0819 7.98744 70.5159 7.20006 63.2666ZM59.5876 61.7055C58.8409 54.8092 46.7724 49.4876 32.6811 49.9356C18.5898 50.3836 7.72951 56.316 8.47616 63.2123C9.22281 70.1086 21.2914 75.4302 35.3827 74.9822C49.474 74.5342 60.3342 68.6154 59.5876 61.7055Z" fill="#B76C01"/>
<path d="M45.7682 77.6976C44.8858 77.8605 43.9763 78.0099 43.0531 78.1456H42.7002C41.7906 78.2678 40.8675 78.3628 39.9851 78.4579H39.605C38.6547 78.5393 37.6773 78.6072 36.6863 78.6479H35.831C34.9079 78.6479 33.9983 78.6479 33.1159 78.6479H32.7629C31.4054 78.6479 30.0479 78.5665 28.7989 78.4714H28.4596C27.5771 78.4036 26.6948 78.3221 25.8395 78.2135H25.7173C24.862 78.1049 24.034 77.9827 23.2059 77.847H22.9479C21.9705 77.6841 21.0202 77.494 20.0835 77.2768H19.9206C18.9704 77.0596 18.0472 76.8152 17.2056 76.5573H17.1105C16.1874 76.2994 15.305 76.0143 14.3954 75.702C13.5266 75.3898 12.6849 75.064 11.8839 74.711C5.55778 71.9959 1.40375 67.9233 0.915039 63.4842V71.2493C1.39018 75.7428 5.55778 79.6932 11.8839 82.4626C12.6849 82.802 13.5266 83.1414 14.3818 83.4536H14.4497C15.305 83.7658 16.1738 84.0374 17.0833 84.3089H17.2056C18.1015 84.5668 19.0111 84.8112 19.9206 85.0148H20.0835C21.0202 85.2184 21.9705 85.4085 22.9479 85.585H23.1244C23.9525 85.7207 24.7942 85.8429 25.663 85.9515H25.7581C26.6269 86.0601 27.5093 86.1415 28.3917 86.2094H28.6224H28.7311C30.0886 86.3044 31.3511 86.3723 32.6951 86.3859H33.0481C33.9576 86.3859 34.8672 86.3859 35.7631 86.3859H36.4012H36.6184C37.6094 86.3859 38.5869 86.2909 39.5371 86.2094H39.7271H39.9444C40.8675 86.128 41.7771 86.0194 42.6595 85.8972H42.836H43.0531C43.9627 85.775 44.8451 85.6257 45.7682 85.4628H45.9311C58.5427 83.0464 67.3531 77.0189 67.3124 70.1226V62.3574C67.3396 69.2673 58.4612 75.2812 45.7682 77.6976Z" fill="#C97701"/>
<path d="M14.6396 52.6635L18.9838 52.5278C19.1311 51.857 19.4409 51.2326 19.8859 50.7095C20.3309 50.1864 20.8975 49.7806 21.536 49.5276C23.4042 48.6898 25.435 48.2772 27.482 48.3194H27.5906L27.9436 51.6047C26.9323 51.574 25.9254 51.7495 24.9841 52.1205C24.3596 52.4192 24.0746 52.84 24.1424 53.3559C24.1751 53.6211 24.2853 53.8707 24.4591 54.0735C24.633 54.2764 24.8628 54.4234 25.1198 54.4962C25.8765 54.7218 26.6667 54.8137 27.4549 54.7678C28.1882 54.7773 28.9151 54.6292 29.5862 54.3333C30.2505 53.9435 30.8317 53.4269 31.2967 52.8129C32.0489 51.3416 33.2019 50.1133 34.6226 49.2697C36.4432 48.3345 38.4682 47.8679 40.5144 47.9121C42.4972 47.7792 44.4842 48.0995 46.3247 48.8488C46.9872 49.0976 47.5856 49.4912 48.0765 50.0009C48.5674 50.5105 48.9382 51.1234 49.162 51.7947L53.2346 51.6725L53.4111 53.2473L49.3384 53.3695C49.269 54.0746 49.0272 54.7517 48.6341 55.3413C48.2411 55.9308 47.7091 56.4145 47.085 56.7498C45.0703 57.8018 42.8118 58.2984 40.5416 58.1887H40.433L40.08 54.9171C41.2022 54.9591 42.3184 54.7358 43.3381 54.2654C43.617 54.1294 43.8466 53.91 43.995 53.6375C44.1434 53.365 44.2032 53.053 44.1662 52.745C44.1397 52.4767 44.0338 52.2223 43.8621 52.0144C43.6905 51.8065 43.4608 51.6544 43.2023 51.5775C42.4754 51.3221 41.7035 51.2204 40.9352 51.2789C40.1027 51.2547 39.2745 51.4074 38.5053 51.7268C37.8646 52.102 37.317 52.6172 36.9034 53.2337C36.0941 54.6828 34.9488 55.9165 33.5638 56.8312C31.774 57.7222 29.7929 58.1604 27.7942 58.1073C25.8067 58.2349 23.8168 57.8955 21.9839 57.1163C21.3054 56.8602 20.6938 56.4535 20.1953 55.9268C19.6967 55.4 19.3243 54.767 19.1059 54.0754L14.8297 54.1976L14.6396 52.6635Z" fill="white"/>
<path d="M0.806184 54.2512C-0.171247 45.2507 13.9336 37.5263 32.274 36.9833C50.6144 36.4403 66.2126 43.2959 67.2579 52.2964C68.3032 61.2969 54.1441 69.0077 35.7901 69.5507C17.4361 70.0938 1.77004 63.2382 0.806184 54.2512ZM60.8775 52.4728C60.0901 45.2236 47.4106 39.6848 32.6134 40.1192C17.8162 40.5536 6.41287 46.7983 7.20024 54.0612C7.98762 61.324 20.6535 66.8492 35.4507 66.4148C50.2479 65.9804 61.6513 59.7357 60.8775 52.4728Z" fill="#F18E01"/>
<path d="M8.47625 54.0209C7.7296 47.111 18.5899 41.165 32.6812 40.7442C46.7725 40.3233 58.841 45.6177 59.5877 52.514C60.3343 59.4104 49.474 65.3836 35.3828 65.7908C21.2915 66.1981 9.20932 60.9308 8.47625 54.0209ZM27.4818 48.3192C25.4348 48.277 23.404 48.6897 21.5358 49.5275C20.8973 49.7804 20.3307 50.1863 19.8857 50.7094C19.4407 51.2325 19.1309 51.8568 18.9836 52.5276L14.6395 52.6634L14.8159 54.2245L19.0922 54.1024C19.3106 54.794 19.683 55.427 20.1815 55.9537C20.68 56.4805 21.2917 56.8872 21.9702 57.1433C23.8031 57.9225 25.7929 58.2619 27.7805 58.1343C29.7791 58.1874 31.7602 57.7492 33.55 56.8582C34.935 55.9435 36.0803 54.7098 36.8896 53.2607C37.3032 52.6441 37.8508 52.129 38.4915 51.7538C39.2607 51.4344 40.0889 51.2817 40.9215 51.3058C41.6897 51.2474 42.4617 51.3491 43.1886 51.6045C43.4471 51.6814 43.6767 51.8335 43.8483 52.0414C44.02 52.2493 44.1259 52.5037 44.1524 52.772C44.1895 53.08 44.1297 53.392 43.9812 53.6645C43.8328 53.9369 43.6032 54.1564 43.3243 54.2924C42.3047 54.7628 41.1884 54.986 40.0662 54.944L40.4192 58.2157H40.5414C42.8116 58.3254 45.0701 57.8288 47.0848 56.7767C47.7089 56.4415 48.241 55.9578 48.634 55.3683C49.027 54.7788 49.2689 54.1016 49.3383 53.3965L53.4109 53.2743L53.2344 51.6995L49.1618 51.8217C48.938 51.1504 48.5672 50.5375 48.0763 50.0279C47.5855 49.5182 46.987 49.1246 46.3245 48.8758C44.484 48.1265 42.497 47.8062 40.5142 47.9391C38.468 47.8949 36.443 48.3615 34.6225 49.2967C33.2017 50.1403 32.0487 51.3686 31.2965 52.8399C30.8315 53.4539 30.2503 53.9704 29.586 54.3603C28.9149 54.6562 28.188 54.8043 27.4547 54.7947C26.6665 54.8407 25.8763 54.7488 25.1197 54.5232C24.8626 54.4504 24.6328 54.3034 24.4589 54.1005C24.2851 53.8977 24.1749 53.648 24.1423 53.3829C24.0744 52.867 24.3595 52.4462 24.9839 52.1475C25.9252 51.7765 26.9321 51.601 27.9434 51.6317L27.5904 48.3464L27.4818 48.3192Z" fill="#FDC536"/>
<path d="M7.20006 54.0609C6.41269 46.798 17.816 40.4855 32.6132 40.119C47.4104 39.7524 60.0899 45.2233 60.8773 52.4726C61.6647 59.7219 50.2477 65.9801 35.4505 66.4145C20.6533 66.849 7.98744 61.3102 7.20006 54.0609ZM59.5876 52.5133C58.8409 45.617 46.7724 40.2954 32.6811 40.7434C18.5898 41.1914 7.72951 47.1103 8.47616 54.0202C9.22281 60.9301 21.2914 66.2381 35.3827 65.7901C49.474 65.3421 60.3342 59.4232 59.5876 52.5133Z" fill="#B76C01"/>
<path d="M45.7682 68.4926C44.8858 68.6555 43.9763 68.8048 43.0531 68.9406H42.7002C41.7906 69.0763 40.8675 69.1713 39.9851 69.2528H39.605C38.6547 69.3343 37.6773 69.4022 36.6863 69.4429H35.831C34.9079 69.4429 33.9983 69.4429 33.1159 69.4429H32.7629C31.4054 69.4429 30.0479 69.3614 28.7989 69.2528H28.4596C27.5772 69.1849 26.6948 69.1035 25.8395 68.9949H25.7173C24.862 68.8863 24.034 68.7641 23.2059 68.6283H22.9479C21.9705 68.4654 21.0202 68.2754 20.0835 68.0582H19.9206C18.9704 67.841 18.0472 67.5966 17.2056 67.3387H17.1105C16.1874 67.0807 15.305 66.7956 14.3954 66.4834C13.5266 66.1712 12.6849 65.8454 11.8839 65.4924C5.55778 62.7773 1.40375 58.7047 0.915039 54.2655V62.0171C1.39018 66.5106 5.55778 70.4746 11.8839 73.244C12.6849 73.5969 13.5266 73.9363 14.3818 74.235H14.4497C15.305 74.5337 16.1738 74.8187 17.0833 75.0902H17.2056C18.1015 75.3482 19.0111 75.579 19.9206 75.7962H20.0835C21.0202 75.9998 21.9705 76.1898 22.9479 76.3663H23.1923C24.0204 76.5156 24.8621 76.6378 25.7309 76.7464H25.8259C26.6947 76.855 27.5772 76.9365 28.4596 77.0044H28.6903H28.7989C30.1565 77.0994 31.419 77.1673 32.7629 77.1808H33.1159C34.0255 77.1808 34.935 77.1808 35.831 77.1808H36.4691H36.6863C37.6773 77.1808 38.6547 77.0858 39.605 77.0044H39.7951H40.0123C40.9354 76.9229 41.8449 76.8143 42.7273 76.6922H42.9038H43.121C44.0306 76.57 44.913 76.4206 45.8361 76.2577H45.999C58.6106 73.8413 67.421 67.8138 67.3803 60.9175V53.1523C67.3396 60.0487 58.4613 66.1033 45.7682 68.4926Z" fill="#C97701"/>
<path d="M14.6396 43.4603L18.9838 43.3246C19.1311 42.6538 19.4409 42.0294 19.8859 41.5063C20.3309 40.9832 20.8975 40.5773 21.536 40.3244C23.4015 39.4782 25.4343 39.0652 27.482 39.1162H27.5906L27.9436 42.3879C26.9328 42.3641 25.9272 42.5394 24.9841 42.9037C24.3596 43.2159 24.0746 43.6368 24.1424 44.1527C24.1751 44.4178 24.2853 44.6675 24.4591 44.8703C24.633 45.0731 24.8628 45.2202 25.1198 45.293C25.8761 45.5197 26.6673 45.6071 27.4549 45.5509C28.1878 45.571 28.9159 45.4272 29.5862 45.1301C30.2505 44.7402 30.8317 44.2236 31.2967 43.6096C32.0522 42.1372 33.2042 40.9053 34.6226 40.0529C36.4457 39.1247 38.469 38.6585 40.5144 38.6953C42.4972 38.5624 44.4842 38.8827 46.3247 39.6321C46.9872 39.8808 47.5856 40.2744 48.0765 40.7841C48.5674 41.2937 48.9382 41.9066 49.162 42.5779L53.2346 42.4557L53.4111 44.0305L49.3384 44.1527C49.269 44.8578 49.0272 45.5349 48.6341 46.1245C48.2411 46.714 47.7091 47.1977 47.085 47.5329C45.0687 48.5796 42.8105 49.0716 40.5416 48.9584H40.433L40.08 45.6867C41.2022 45.7287 42.3184 45.5054 43.3381 45.0351C43.6157 44.8975 43.8441 44.6777 43.9923 44.4056C44.1405 44.1336 44.2012 43.8224 44.1662 43.5146C44.1397 43.2463 44.0338 42.992 43.8621 42.784C43.6905 42.5761 43.4608 42.424 43.2023 42.3471C42.475 42.0931 41.7042 41.9869 40.9352 42.0349C40.1022 42.0211 39.2752 42.1782 38.5053 42.4965C37.8646 42.8717 37.317 43.3868 36.9034 44.0033C36.0976 45.4513 34.9514 46.6814 33.5638 47.5873C31.7844 48.515 29.8007 48.9818 27.7942 48.9448C25.8067 49.0724 23.8168 48.733 21.9839 47.9538C21.3054 47.6977 20.6938 47.291 20.1953 46.7643C19.6967 46.2375 19.3243 45.6045 19.1059 44.9129L14.8297 45.0351L14.6396 43.4603Z" fill="white"/>
<path d="M0.806184 45.0481C-0.171247 36.0476 13.9336 28.3232 32.274 27.7802C50.6144 27.2371 66.2126 34.0927 67.2579 43.0932C68.3032 52.0937 54.1441 59.8046 35.7901 60.3476C17.4361 60.8906 1.77004 54.035 0.806184 45.0481ZM60.8775 43.2697C60.0901 36.0204 47.4106 30.4817 32.6134 30.9161C17.8162 31.3505 6.41287 37.5952 7.20024 44.858C7.98762 52.1209 20.6535 57.6461 35.4507 57.2117C50.2479 56.7773 61.6513 50.5326 60.8775 43.2697Z" fill="#F18E01"/>
<path d="M8.47625 44.8165C7.7296 37.9066 18.5899 31.947 32.6812 31.5397C46.7725 31.1324 58.841 36.3997 59.5877 43.3096C60.3343 50.2195 49.474 56.1791 35.3828 56.5864C21.2915 56.9936 9.20932 51.7263 8.47625 44.8165ZM27.4818 39.1148C25.4341 39.0638 23.4013 39.4768 21.5358 40.323C20.8973 40.5759 20.3307 40.9818 19.8857 41.5049C19.4407 42.028 19.1309 42.6524 18.9836 43.3232L14.6395 43.4589L14.8159 45.0201L19.0922 44.8979C19.3106 45.5895 19.683 46.2226 20.1815 46.7493C20.68 47.276 21.2917 47.6828 21.9702 47.9388C23.8031 48.718 25.7929 49.0574 27.7805 48.9298C29.7869 48.9668 31.7706 48.5001 33.55 47.5723C34.9376 46.6664 36.0838 45.4363 36.8896 43.9884C37.3032 43.3718 37.8508 42.8567 38.4915 42.4815C39.2614 42.1632 40.0884 42.0061 40.9215 42.0199C41.6904 41.9719 42.4613 42.0781 43.1886 42.3322C43.4471 42.409 43.6767 42.5611 43.8483 42.7691C44.02 42.977 44.1259 43.2313 44.1524 43.4996C44.1874 43.8075 44.1267 44.1186 43.9785 44.3907C43.8303 44.6627 43.6019 44.8825 43.3243 45.0201C42.3047 45.4905 41.1884 45.7137 40.0662 45.6717L40.4192 48.9434H40.5414C42.8103 49.0566 45.0685 48.5647 47.0848 47.518C47.7089 47.1827 48.241 46.699 48.634 46.1095C49.027 45.52 49.2689 44.8428 49.3383 44.1377L53.4109 44.0155L53.2344 42.4408L49.1618 42.5629C48.938 41.8916 48.5672 41.2788 48.0763 40.7691C47.5855 40.2594 46.987 39.8658 46.3245 39.6171C44.484 38.8677 42.497 38.5474 40.5142 38.6804C38.4688 38.6435 36.4455 39.1097 34.6225 40.0379C33.204 40.8903 32.052 42.1223 31.2965 43.5947C30.8302 44.2198 30.2441 44.7459 29.5724 45.1423C28.9021 45.4394 28.174 45.5831 27.4411 45.5631C26.6536 45.6193 25.8624 45.5319 25.1061 45.3052C24.8491 45.2324 24.6192 45.0853 24.4454 44.8825C24.2715 44.6796 24.1613 44.43 24.1287 44.1648C24.0608 43.649 24.3459 43.2281 24.9703 42.9159C25.9135 42.5516 26.919 42.3763 27.9298 42.4L27.5769 39.1283L27.4818 39.1148Z" fill="#FDC536"/>
<path d="M7.20006 44.8578C6.41269 37.5949 17.816 31.2824 32.6132 30.9158C47.4104 30.5493 60.0899 36.0202 60.8773 43.2695C61.6647 50.5187 50.2477 56.8449 35.4505 57.2114C20.6533 57.578 7.98744 52.1071 7.20006 44.8578ZM59.5876 43.3102C58.8409 36.4003 46.7724 31.0923 32.6811 31.5403C18.5898 31.9883 7.72951 37.9072 8.47616 44.8171C9.22281 51.7269 21.2914 57.035 35.3827 56.587C49.474 56.139 60.3342 50.2201 59.5876 43.3102Z" fill="#B76C01"/>
<path d="M45.7682 59.2896C44.8858 59.4525 43.9763 59.6018 43.0531 59.7375H42.7002C41.7906 59.8597 40.8675 59.9683 39.9851 60.0498H39.605C38.6547 60.1312 37.6773 60.1855 36.6863 60.2263H35.831C34.9079 60.2263 33.9983 60.2263 33.1159 60.2263H32.7629C31.4054 60.2263 30.0479 60.1448 28.7989 60.0498H28.4596C27.5771 59.9819 26.6948 59.9004 25.8395 59.7918H25.7173C24.862 59.6832 24.034 59.5611 23.2059 59.4253H22.9479C21.9705 59.2488 21.0202 59.0588 20.0835 58.8551H19.9206C18.9704 58.6379 18.0472 58.4072 17.2056 58.1492H17.1105C16.1874 57.8777 15.305 57.5926 14.3954 57.294C13.5266 56.9817 12.6849 56.6424 11.8839 56.2894C5.55778 53.5743 1.40375 49.5017 0.915039 45.0761V52.8277C1.39018 57.3211 5.55778 61.2852 11.8839 64.0546C12.6849 64.4075 13.5266 64.7333 14.3818 65.0455H14.4497C15.305 65.3442 16.1738 65.6293 17.0833 65.9008H17.2056C18.1015 66.1587 19.0111 66.3895 19.9206 66.6067H20.0835C21.0202 66.8103 21.9705 67.0004 22.9479 67.1633H23.1244C23.9525 67.3126 24.7942 67.4348 25.663 67.5434H25.7581C26.6269 67.6384 27.5093 67.7335 28.3917 67.8013H28.6224H28.7311C30.0886 67.8964 31.3511 67.9643 32.6951 67.9778H33.0481C33.9576 67.9778 34.8672 67.9778 35.7631 67.9778H36.4012H36.6184C37.6094 67.9778 38.5869 67.8828 39.5371 67.8013H39.7271H39.9444C40.8675 67.7199 41.7771 67.6113 42.6595 67.4891H42.836H43.0531C43.9627 67.367 44.8451 67.2176 45.7682 67.0547H45.9311C58.5427 64.6519 67.3531 58.6244 67.3124 51.728V43.9629C67.3396 50.8456 58.4612 56.9003 45.7682 59.2896Z" fill="#C97701"/>
<path d="M14.6396 34.241L18.9838 34.1189C19.1289 33.4471 19.4378 32.8217 19.8831 32.2982C20.3283 31.7748 20.8962 31.3696 21.536 31.1187C23.4015 30.2725 25.4343 29.8595 27.482 29.9105H27.5906L27.9436 33.1822C26.9328 33.1584 25.9272 33.3337 24.9841 33.698C24.3596 34.0103 24.0746 34.4175 24.1424 34.947C24.1776 35.2097 24.2888 35.4564 24.4625 35.6566C24.6362 35.8568 24.8647 36.0018 25.1198 36.0737C25.8751 36.3056 26.6665 36.3976 27.4549 36.3452C28.1836 36.3525 28.9056 36.2044 29.5726 35.9108C30.2369 35.521 30.8181 35.0044 31.2831 34.3904C32.0386 32.918 33.1907 31.686 34.6091 30.8336C36.4322 29.9054 38.4554 29.4392 40.5008 29.4761C42.4842 29.3293 44.4744 29.6501 46.3111 30.4128C46.9727 30.6593 47.5707 31.0505 48.0616 31.5578C48.5525 32.0652 48.9238 32.6758 49.1484 33.3451L53.221 33.2229L53.3975 34.8112L49.3249 34.9334C49.2555 35.6385 49.0136 36.3157 48.6206 36.9052C48.2276 37.4947 47.6955 37.9784 47.0714 38.3137C45.0529 39.3543 42.7964 39.8458 40.528 39.7391H40.433L40.08 36.4674C41.2015 36.5194 42.3191 36.3006 43.3381 35.8294C43.6157 35.6918 43.8441 35.472 43.9923 35.1999C44.1405 34.9279 44.2012 34.6167 44.1662 34.3089C44.1256 34.0435 44.0072 33.796 43.826 33.5979C43.6448 33.3997 43.4088 33.2598 43.148 33.1957C42.4207 32.9417 41.6499 32.8355 40.881 32.8835C40.0474 32.8629 39.2189 33.0202 38.4509 33.3451C37.8103 33.7203 37.2627 34.2354 36.849 34.8519C36.0432 36.2999 34.8971 37.53 33.5095 38.4358C31.7247 39.341 29.74 39.7799 27.74 39.7119C25.7538 39.8369 23.7656 39.5024 21.9296 38.7345C21.2521 38.4767 20.6414 38.0694 20.1431 37.5429C19.6449 37.0164 19.2718 36.3843 19.0517 35.6936L14.7754 35.8158L14.6396 34.241Z" fill="white"/>
<path d="M0.806184 35.8295C-0.171247 26.8425 13.9336 19.1181 32.274 18.5751C50.6144 18.0321 66.2126 24.8877 67.2579 33.8746C68.3032 42.8615 54.1441 50.5995 35.7901 51.1425C17.4361 51.6856 1.77004 44.83 0.806184 35.8295ZM60.8775 34.0646C60.0901 26.8154 47.4106 21.2766 32.6134 21.711C17.8162 22.1454 6.41287 28.3901 7.20024 35.653C7.98762 42.9158 20.6535 48.441 35.4507 48.0066C50.2479 47.5722 61.6513 41.3275 60.8775 34.0646Z" fill="#F18E01"/>
<path d="M8.47625 35.6114C7.7296 28.7015 18.5899 22.7419 32.6812 22.3346C46.7725 21.9273 58.841 27.1946 59.5877 34.1045C60.3343 41.0144 49.474 46.9604 35.3828 47.3813C21.2915 47.8021 9.20932 42.5077 8.47625 35.6114ZM27.4818 29.9097C25.4341 29.8587 23.4013 30.2717 21.5358 31.1179C20.896 31.3688 20.3282 31.774 19.8829 32.2975C19.4376 32.8209 19.1287 33.4463 18.9836 34.1181L14.6395 34.2403L14.8159 35.815L19.0922 35.6928C19.3124 36.3835 19.6854 37.0157 20.1837 37.5422C20.682 38.0687 21.2927 38.476 21.9702 38.7337C23.8062 39.5016 25.7943 39.8361 27.7805 39.7112C29.7805 39.7792 31.7652 39.3402 33.55 38.4351C34.9376 37.5292 36.0838 36.2991 36.8896 34.8512C37.3032 34.2346 37.8508 33.7195 38.4915 33.3443C39.2595 33.0194 40.0879 32.8621 40.9215 32.8827C41.6769 32.8402 42.4333 32.9462 43.1479 33.195C43.4063 33.2718 43.636 33.4239 43.8077 33.6319C43.9793 33.8398 44.0852 34.0941 44.1117 34.3624C44.1468 34.6703 44.086 34.9814 43.9378 35.2535C43.7896 35.5255 43.5612 35.7453 43.2836 35.8829C42.2645 36.3541 41.147 36.5729 40.0255 36.5209L40.3785 39.7926H40.5006C42.769 39.8994 45.0256 39.4078 47.044 38.3672C47.6682 38.0319 48.2003 37.5482 48.5933 36.9587C48.9863 36.3692 49.2282 35.692 49.2976 34.9869L53.3702 34.8647L53.1937 33.2764L49.1211 33.3986C48.8965 32.7293 48.5251 32.1187 48.0342 31.6114C47.5433 31.104 46.9453 30.7128 46.2838 30.4663C44.447 29.7037 42.4569 29.3828 40.4735 29.5296C38.4281 29.4927 36.4049 29.9589 34.5818 30.8871C33.1633 31.7396 32.0113 32.9715 31.2558 34.4439C30.7935 35.0356 30.222 35.5333 29.5724 35.91C28.9002 36.2008 28.1734 36.3443 27.4411 36.3309C26.6527 36.3833 25.8615 36.2913 25.1061 36.0594C24.851 35.9875 24.6224 35.8425 24.4488 35.6423C24.2751 35.442 24.1638 35.1953 24.1287 34.9326C24.0608 34.4032 24.3459 33.9959 24.9703 33.6837C25.9135 33.3194 26.919 33.1441 27.9298 33.1678L27.5769 29.8961L27.4818 29.9097Z" fill="#FDC536"/>
<path d="M7.20006 35.6534C6.41269 28.3905 17.816 22.1458 32.6132 21.7114C47.4104 21.277 60.0899 26.8158 60.8773 34.0651C61.6647 41.3143 50.2477 47.6405 35.4505 48.007C20.6533 48.3736 7.98744 42.9027 7.20006 35.6534ZM59.5876 34.1058C58.8409 27.1959 46.7724 21.8879 32.6811 22.3359C18.5898 22.7839 7.72951 28.7028 8.47616 35.6126C9.22281 42.5225 21.2914 47.8305 35.3827 47.3825C49.474 46.9346 60.3342 41.0157 59.5876 34.1058Z" fill="#B76C01"/>
<path d="M45.7682 50.0843C44.8858 50.2472 43.9763 50.3965 43.0531 50.5187H42.7002C41.7906 50.6409 40.8675 50.7495 39.9851 50.8309H39.605C38.6547 50.9124 37.6773 50.9667 36.6863 51.0074H35.831C34.9079 51.0074 33.9983 51.0074 33.1159 51.0074H32.7629C31.4054 51.0074 30.0479 50.926 28.7989 50.8309H28.4596C27.5771 50.763 26.6948 50.6816 25.8395 50.573H25.7173C24.862 50.4644 24.034 50.3422 23.2059 50.2064H22.9479C21.9705 50.0435 21.0202 49.8535 20.0835 49.6498H19.9206C18.9704 49.4326 18.0472 49.2019 17.2056 48.9439H17.1105C16.1874 48.6724 15.305 48.3873 14.3954 48.0887C13.5266 47.7764 12.6849 47.4371 11.8839 47.0841C5.55778 44.369 1.40375 40.2964 0.915039 35.8572V43.6224C1.39018 48.1158 5.55778 52.0799 11.8839 54.8493C12.6849 55.2022 13.5266 55.528 14.3818 55.8402H14.4497C15.305 56.1389 16.1738 56.424 17.0833 56.6819H17.2056C18.1015 56.9398 19.0111 57.1707 19.9206 57.3879H20.0835C21.0202 57.5915 21.9705 57.7816 22.9479 57.9445H23.1244C23.9525 58.0802 24.7942 58.216 25.663 58.311H25.7581C26.6269 58.4196 27.5093 58.5011 28.3917 58.5825H28.7311C30.0886 58.6775 31.3511 58.7318 32.6951 58.7589H33.0481C33.9576 58.7589 34.8672 58.7589 35.7631 58.7589H36.4012H36.6184C37.6094 58.7589 38.5869 58.6504 39.5371 58.5689H39.7271H39.9444C40.8675 58.4739 41.7771 58.3788 42.6595 58.2567H42.836H43.0531C43.9627 58.1209 44.8451 57.9852 45.7682 57.8223H45.9311C58.5427 55.4194 67.3531 49.3919 67.3124 42.4956V34.7305C67.3396 41.6404 58.4612 47.695 45.7682 50.0843Z" fill="#C97701"/>
<path d="M14.6396 25.0522L18.9838 24.93C19.1289 24.2583 19.4378 23.6329 19.8831 23.1094C20.3283 22.586 20.8962 22.1808 21.536 21.9299C23.4028 21.0865 25.4339 20.6692 27.482 20.7081H27.5906L27.9436 23.9933C26.9328 23.9696 25.9272 24.1449 24.9841 24.5092C24.3596 24.8214 24.0746 25.2287 24.1424 25.7581C24.1776 26.0209 24.2888 26.2676 24.4625 26.4678C24.6362 26.668 24.8647 26.813 25.1198 26.8849C25.8751 27.1168 26.6665 27.2088 27.4549 27.1564C28.1882 27.166 28.9151 27.0178 29.5862 26.722C30.2505 26.3321 30.8317 25.8155 31.2967 25.2015C32.0525 23.7329 33.2047 22.5054 34.6226 21.6584C36.4455 20.7296 38.4689 20.2634 40.5144 20.3008C42.4972 20.1679 44.4842 20.4882 46.3247 21.2375C46.9857 21.4888 47.5828 21.8832 48.0734 22.3926C48.5639 22.9019 48.9357 23.5134 49.162 24.1834L53.2346 24.0612L53.4111 25.6495L49.3384 25.7717C49.2704 26.4754 49.0289 27.1513 48.6356 27.7389C48.2424 28.3264 47.7096 28.8073 47.085 29.1384C45.0703 30.1904 42.8118 30.6871 40.5416 30.5774H40.433L40.08 27.3057C41.2032 27.3618 42.3228 27.1379 43.3381 26.6541C43.6159 26.5205 43.845 26.3034 43.9934 26.0333C44.1419 25.7631 44.2023 25.4534 44.1662 25.1472C44.1397 24.8789 44.0338 24.6246 43.8621 24.4166C43.6905 24.2087 43.4608 24.0566 43.2023 23.9798C42.4766 23.719 41.7044 23.6126 40.9352 23.6675C40.1016 23.6469 39.2733 23.8042 38.5053 24.1291C37.8617 24.4945 37.313 25.006 36.9034 25.6224C36.1016 27.0769 34.9548 28.3123 33.5638 29.2199C31.7768 30.1189 29.7937 30.5575 27.7942 30.4959C25.8081 30.6209 23.8199 30.2864 21.9839 29.5185C21.3044 29.2602 20.6924 28.8511 20.1939 28.3221C19.6954 27.793 19.3234 27.1577 19.1059 26.464L14.8297 26.5998L14.6396 25.0522Z" fill="white"/>
<path d="M0.806184 26.6269C-0.171247 17.64 13.9336 9.90196 32.274 9.37252C50.6144 8.84307 66.2126 15.6851 67.2579 24.672C68.3032 33.659 54.1441 41.3427 35.7901 41.94C17.4361 42.5373 1.77004 35.6274 0.806184 26.6269ZM60.8775 24.8621C60.0901 17.6128 47.4106 12.0604 32.6134 12.5084C17.8162 12.9564 6.41287 19.1876 7.20024 26.4368C7.98762 33.6861 20.6535 39.2385 35.4507 38.8041C50.2479 38.3696 61.6513 32.1114 60.8775 24.8621Z" fill="#F18E01"/>
<path d="M8.47625 26.4102C7.7296 19.5003 18.5899 13.5407 32.6812 13.1334C46.7725 12.7262 58.841 17.9934 59.5877 24.9033C60.3343 31.8132 49.474 37.7593 35.3828 38.1801C21.2915 38.6009 9.20932 33.3065 8.47625 26.4102ZM27.4818 20.6949C25.4337 20.656 23.4026 21.0734 21.5358 21.9167C20.896 22.1676 20.3282 22.5728 19.8829 23.0963C19.4376 23.6197 19.1287 24.2452 18.9836 24.9169L14.6395 25.0527L14.8159 26.6274L19.0922 26.4917C19.3097 27.1853 19.6817 27.8206 20.1802 28.3497C20.6787 28.8787 21.2907 29.2878 21.9702 29.5461C23.8062 30.314 25.7943 30.6485 27.7805 30.5236C29.7799 30.5851 31.7631 30.1465 33.55 29.2475C34.941 28.3399 36.0878 27.1045 36.8896 25.65C37.2992 25.0336 37.8479 24.5221 38.4915 24.1567C39.2595 23.8318 40.0879 23.6745 40.9215 23.6951C41.6907 23.6402 42.4629 23.7466 43.1886 24.0074C43.4471 24.0842 43.6767 24.2363 43.8483 24.4443C44.02 24.6522 44.1259 24.9065 44.1524 25.1748C44.1886 25.481 44.1282 25.7907 43.9798 26.0609C43.8313 26.3311 43.6021 26.5481 43.3243 26.6817C42.3091 27.1655 41.1895 27.3894 40.0662 27.3333L40.4192 30.605H40.5414C42.8116 30.7147 45.0701 30.218 47.0848 29.166C47.7094 28.8349 48.2422 28.354 48.6355 27.7665C49.0287 27.1789 49.2702 26.503 49.3383 25.7993L53.4109 25.6771L53.2344 24.0888L49.1618 24.211C48.9355 23.541 48.5637 22.9295 48.0732 22.4202C47.5826 21.9109 46.9855 21.5164 46.3245 21.2651C44.484 20.5158 42.497 20.1955 40.5142 20.3284C38.4687 20.291 36.4453 20.7572 34.6225 21.686C33.2045 22.533 32.0523 23.7605 31.2965 25.2292C30.8315 25.8431 30.2503 26.3597 29.586 26.7496C28.9149 27.0454 28.188 27.1936 27.4547 27.184C26.6663 27.2364 25.875 27.1444 25.1197 26.9125C24.8645 26.8406 24.636 26.6956 24.4623 26.4954C24.2886 26.2952 24.1774 26.0485 24.1423 25.7857C24.0744 25.2563 24.3595 24.849 24.9839 24.5368C25.9271 24.1725 26.9326 23.9972 27.9434 24.0209L27.5904 20.7357L27.4818 20.6949Z" fill="#FDC536"/>
<path d="M7.20006 26.4093C6.41269 19.16 17.816 12.9153 32.6132 12.4809C47.4104 12.0465 60.0899 17.5853 60.8773 24.8346C61.6647 32.0838 50.2477 38.3421 35.4505 38.7765C20.6533 39.2109 7.98744 33.6993 7.20006 26.4093ZM59.5876 24.8753C58.8409 17.9654 46.7724 12.6574 32.6811 13.1054C18.5898 13.5534 7.72951 19.4723 8.47616 26.3822C9.22281 33.2921 21.2914 38.6 35.3827 38.1521C49.474 37.7041 60.3342 31.7716 59.5876 24.8753Z" fill="#B76C01"/>
<path d="M45.7682 40.8814C44.8858 41.0443 43.9763 41.1937 43.0531 41.3158H42.7002C41.7906 41.438 40.8675 41.5466 39.9851 41.6281H39.605C38.6547 41.7231 37.6773 41.7774 36.6863 41.8181H35.831C34.9079 41.8181 33.9983 41.8181 33.1159 41.8181H32.7629C31.4054 41.8181 30.0479 41.7367 28.7989 41.6417H28.4596C27.5771 41.5738 26.6948 41.4788 25.8395 41.3837H25.7173C24.862 41.2887 24.034 41.1665 23.2059 41.0172H22.9479C21.9705 40.8543 21.0202 40.6642 20.0835 40.4606H19.9206C18.9704 40.2434 18.0472 40.0126 17.2056 39.7547H17.1105C16.1874 39.4832 15.305 39.1981 14.3954 38.8859C13.5266 38.5736 12.6849 38.2478 11.8839 37.8948C5.55778 35.1798 1.40375 31.1071 0.915039 26.668V34.4331C1.39018 38.9266 5.55778 42.8906 11.8839 45.66C12.6849 46.0129 13.5266 46.3388 14.3818 46.651H14.4497C15.305 46.9497 16.1738 47.2347 17.0833 47.4927H17.2056C18.1015 47.737 19.0111 47.9814 19.9206 48.1986H20.0835C21.0202 48.4158 21.9705 48.6059 22.9479 48.7688H23.1244C23.9525 48.9045 24.7942 49.0267 25.663 49.1353H25.7581C26.6269 49.2439 27.5093 49.3254 28.3917 49.4068H28.7311C30.0886 49.5154 31.3511 49.5697 32.6951 49.5969H33.0481C33.9576 49.5969 34.8672 49.5969 35.7631 49.5969H36.6184C37.6094 49.5969 38.5869 49.4883 39.5371 49.4068H39.7271H39.9444C40.8675 49.3254 41.7771 49.2303 42.6595 49.1081H42.836H43.0531C43.9627 48.9724 44.8451 48.8366 45.7682 48.6602H45.9311C58.5427 46.2573 67.3531 40.2162 67.3124 33.3199V25.5684C67.3396 32.4375 58.4612 38.4922 45.7682 40.8814Z" fill="#C97701"/>
<path d="M14.6396 15.8335L18.9838 15.7113C19.1313 15.0389 19.441 14.4129 19.8858 13.8876C20.3306 13.3623 20.8971 12.9538 21.536 12.6975C23.4062 11.8661 25.4356 11.4537 27.482 11.4893H27.5906L27.9436 14.7746C26.9323 14.7439 25.9254 14.9194 24.9841 15.2904C24.3596 15.6027 24.0746 16.0099 24.1424 16.5394C24.1776 16.8021 24.2888 17.0488 24.4625 17.249C24.6362 17.4493 24.8647 17.5943 25.1198 17.6661C25.8765 17.8917 26.6667 17.9836 27.4549 17.9376C28.1882 17.9472 28.9151 17.7991 29.5862 17.5032C30.2505 17.1134 30.8317 16.5968 31.2967 15.9828C32.0525 14.5141 33.2047 13.2867 34.6226 12.4396C36.4455 11.5109 38.4689 11.0447 40.5144 11.0821C42.4972 10.9491 44.4842 11.2694 46.3247 12.0187C46.9857 12.27 47.5828 12.6645 48.0734 13.1738C48.5639 13.6831 48.9357 14.2947 49.162 14.9646L53.2346 14.8424L53.4111 16.4308L49.3384 16.553C49.2692 17.2563 49.0273 17.9317 48.6341 18.5191C48.241 19.1064 47.7089 19.5876 47.085 19.9197C45.0703 20.9717 42.8118 21.4684 40.5416 21.3587H40.433L40.08 18.087C41.2032 18.143 42.3228 17.9191 43.3381 17.4354C43.6159 17.3017 43.845 17.0847 43.9934 16.8145C44.1419 16.5444 44.2023 16.2346 44.1662 15.9285C44.1422 15.6578 44.0375 15.4005 43.8657 15.1899C43.6938 14.9793 43.4627 14.8252 43.2023 14.7474C42.4739 14.4987 41.7033 14.3972 40.9352 14.4488C40.1032 14.4314 39.2764 14.5838 38.5053 14.8968C37.8646 15.272 37.317 15.7871 36.9034 16.4036C36.098 17.8556 34.9519 19.0901 33.5638 20.0011C31.7768 20.9002 29.7937 21.3388 27.7942 21.2772C25.8081 21.4021 23.8199 21.0677 21.9839 20.2998C21.3054 20.0397 20.6944 19.6301 20.1961 19.1012C19.6978 18.5724 19.3252 17.938 19.1059 17.2453L14.8297 17.3811L14.6396 15.8335Z" fill="#FDC536"/>
<path d="M0.806184 17.4219C-0.171247 8.42136 13.9336 0.696932 32.274 0.16749C50.6144 -0.361951 66.2126 6.4665 67.2579 15.467C68.3032 24.4675 54.1441 32.1919 35.7901 32.7349C17.4361 33.278 1.77004 26.4088 0.806184 17.4219ZM60.8775 15.6571C60.0901 8.40778 47.4106 2.85543 32.6134 3.28984C17.8162 3.72426 6.41287 9.98253 7.20024 17.2318C7.98762 24.4811 20.6535 30.0334 35.4507 29.599C50.2479 29.1646 61.6513 22.9063 60.8775 15.6571Z" fill="#F18E01"/>
<path d="M8.47625 17.1909C7.7296 10.2945 18.5899 4.33491 32.6812 3.91407C46.7725 3.49324 58.841 8.78766 59.5877 15.6976C60.3343 22.6075 49.474 28.5535 35.3828 28.9743C21.2915 29.3952 9.20932 24.1008 8.47625 17.1909ZM27.4818 11.4892C25.4355 11.4536 23.406 11.866 21.5358 12.6974C20.897 12.9536 20.3304 13.3622 19.8856 13.8874C19.4408 14.4127 19.1311 15.0388 18.9836 15.7111L14.6395 15.8333L14.8159 17.4081L19.0922 17.2723C19.3115 17.965 19.684 18.5994 20.1823 19.1282C20.6806 19.6571 21.2918 20.0667 21.9702 20.3268C23.8062 21.0947 25.7943 21.4291 27.7805 21.3042C29.7799 21.3658 31.7631 20.9272 33.55 20.0281C34.9382 19.1172 36.0842 17.8826 36.8896 16.4306C37.3032 15.8141 37.8508 15.299 38.4915 14.9237C39.2626 14.6108 40.0894 14.4584 40.9215 14.4758C41.6895 14.4242 42.4602 14.5257 43.1886 14.7744C43.4491 14.8522 43.6801 15.0063 43.852 15.2169C44.0238 15.4275 44.1285 15.6848 44.1524 15.9555C44.1886 16.2616 44.1282 16.5714 43.9798 16.8416C43.8313 17.1117 43.6021 17.3287 43.3243 17.4624C42.3091 17.9461 41.1895 18.17 40.0662 18.114L40.4192 21.3857H40.5414C42.8116 21.4954 45.0701 20.9987 47.0848 19.9467C47.7087 19.6146 48.2408 19.1334 48.634 18.5461C49.0271 17.9587 49.269 17.2833 49.3383 16.58L53.4109 16.4578L53.2344 14.8695L49.1618 14.9916C48.9355 14.3217 48.5637 13.7101 48.0732 13.2008C47.5826 12.6915 46.9855 12.297 46.3245 12.0458C44.484 11.2964 42.497 10.9761 40.5142 11.1091C38.4687 11.0716 36.4453 11.5378 34.6225 12.4666C33.2045 13.3136 32.0523 14.5411 31.2965 16.0098C30.8315 16.6238 30.2503 17.1404 29.586 17.5302C28.9149 17.8261 28.188 17.9742 27.4547 17.9647C26.6665 18.0106 25.8763 17.9188 25.1197 17.6931C24.8645 17.6213 24.636 17.4763 24.4623 17.276C24.2886 17.0758 24.1774 16.8291 24.1423 16.5664C24.0744 16.0369 24.3595 15.6297 24.9839 15.3174C25.9252 14.9464 26.9321 14.7709 27.9434 14.8016L27.5904 11.5163L27.4818 11.4892Z" fill="#FDC536"/>
<path d="M7.20006 17.2328C6.41269 9.98348 17.816 3.65732 32.6132 3.29079C47.4104 2.92425 60.0899 8.40872 60.8773 15.658C61.6647 22.9073 50.2477 29.1656 35.4505 29.6C20.6533 30.0344 7.98744 24.4956 7.20006 17.2328ZM59.5876 15.6987C58.8409 8.78883 46.7724 3.48083 32.6811 3.91524C18.5898 4.34966 7.72951 10.2957 8.47616 17.192C9.22281 24.0883 21.2914 29.4099 35.3827 28.9755C49.474 28.5411 60.3342 22.595 59.5876 15.6987Z" fill="#B76C01"/>
<path d="M45.7682 31.6628C44.8858 31.8393 43.9763 31.9886 43.0531 32.1108H42.7002C41.7906 32.2329 40.8675 32.328 39.9851 32.423H39.605C38.6547 32.5044 37.6773 32.5723 36.6863 32.6131H35.831C34.9079 32.6131 33.9983 32.6131 33.1159 32.6131H32.7629C31.4054 32.6131 30.0479 32.5316 28.7989 32.4366H28.4596C27.5771 32.3551 26.6948 32.2737 25.8395 32.1651H25.7173C24.862 32.0565 24.034 31.9343 23.2059 31.7985H22.9479C21.9705 31.6356 21.0202 31.4456 20.0835 31.2419H19.9206C18.9704 31.0247 18.0472 30.7804 17.2056 30.5224H17.1105C16.1874 30.2645 15.305 29.9794 14.3954 29.6672C13.5266 29.3549 12.6849 29.0291 11.8839 28.6762C5.55778 25.9611 1.40375 21.8885 0.915039 17.4493V25.2144C1.39018 29.7079 5.55778 33.6719 11.8839 36.4413C12.6849 36.7943 13.5266 37.1201 14.3818 37.4323H14.4497C15.305 37.7446 16.1738 38.0297 17.0833 38.2876H17.2056C18.1015 38.5455 19.0111 38.7899 19.9206 39.0071H20.0835C21.0202 39.2243 21.9705 39.4143 22.9479 39.5772H23.1244C23.9525 39.713 24.7942 39.8352 25.663 39.9438H25.7581C26.6269 40.0524 27.5093 40.1339 28.3917 40.2017H28.6224H28.7311C30.0886 40.3103 31.3511 40.3646 32.6951 40.3918H33.0481C33.9576 40.3918 34.8672 40.3918 35.7631 40.3918H36.6184C37.6094 40.3918 38.5869 40.2832 39.5371 40.2017H39.7271H39.9444C40.8675 40.1203 41.7771 40.0252 42.6595 39.9031H42.836H43.0531C43.9627 39.7673 44.8451 39.618 45.7682 39.4551H45.9311C58.5427 37.0387 67.3531 31.0112 67.3124 24.1148V16.3633C67.3396 23.2324 58.4612 29.2735 45.7682 31.6628Z" fill="#C97701"/>
<g style="mix-blend-mode:multiply">
<path d="M28.6899 69.5781C28.6899 76.3658 33.3192 82.3254 40.5142 86.208C41.2608 86.1401 42.0075 86.0587 42.7406 85.9501H42.917H43.1342C44.0438 85.8279 44.9262 85.6786 45.8493 85.5157H46.0122C58.6238 83.0993 67.4342 77.0717 67.3935 70.1754V62.4375C67.3935 62.2881 67.3935 62.1388 67.3935 61.9894C67.4364 61.6517 67.459 61.3117 67.4614 60.9713V53.2333C67.4614 53.084 67.4614 52.9346 67.4614 52.7853C67.5042 52.4476 67.527 52.1076 67.5293 51.7671V49.0521C65.0404 48.6255 62.5201 48.4075 59.9949 48.4004C42.6183 48.3733 28.6899 57.8761 28.6899 69.5781Z" fill="#DEDEDE"/>
</g>
<path d="M80.3717 71.4122C82.6252 82.2726 74.9415 91.9247 62.1399 92.0062C48.3337 92.0876 36.143 81.1458 35.9665 68.9279C35.8172 57.8368 45.7544 50.6961 57.4428 51.9587C68.3982 53.1261 78.3218 61.4886 80.3717 71.4122Z" fill="#F18E01"/>
<path d="M61.6103 87.4987C50.75 87.4308 41.0979 78.8647 40.7585 69.1718C40.4462 60.2392 48.3336 54.2389 57.8364 55.2299C66.8505 56.1259 75.0229 63.0357 76.5705 71.1946C78.2402 79.9779 71.8326 87.5665 61.6103 87.4987Z" fill="#D47D01"/>
<path d="M61.5155 86.6156C51.2253 86.5205 42.0618 78.4703 41.7089 69.2255C41.3695 60.7272 48.8495 55.012 57.9179 55.8944C66.5248 56.7361 74.3442 63.3608 75.8103 71.1531C77.3715 79.5156 71.2219 86.7106 61.5155 86.6156Z" fill="#FDC536"/>
</svg>