<svg width="1em" height="1em" viewBox="0 0 30 26" fill="none" xmlns="http://www.w3.org/2000/svg">
<path fill-rule="evenodd" clip-rule="evenodd" d="M29.7754 11.4467L15.3631 0.125537C15.1498 -0.0418457 14.85 -0.0418457 14.637 0.125537L0.224596 11.4467C0.102042 11.5431 0.0228581 11.6841 0.00421115 11.8389C-0.0144358 11.9937 0.0293497 12.1495 0.125505 12.2719L2.172 14.8771C2.28806 15.0248 2.46026 15.1019 2.63456 15.1019C2.76151 15.1019 2.88951 15.0608 2.99718 14.9762L15 5.54759L27.0028 14.9762C27.1253 15.0725 27.2812 15.1161 27.436 15.0975C27.5908 15.079 27.7318 14.9996 27.828 14.8771L29.8745 12.2719C30.0749 12.0167 30.0305 11.6474 29.7754 11.4467" fill="url(#paint0_linear_2541_9098)"/>
<path fill-rule="evenodd" clip-rule="evenodd" d="M24.886 14.6901L15.3619 7.26295C15.1495 7.09725 14.8516 7.09725 14.6392 7.26295L5.11513 14.6901C4.97226 14.8015 4.88867 14.9725 4.88867 15.1535V24.9355C4.88867 25.26 5.152 25.5233 5.4765 25.5233H12.03C12.3545 25.5233 12.6179 25.26 12.6179 24.9355V19.4567C12.6179 18.1453 13.6848 17.0781 14.9962 17.0781C16.3078 17.0781 17.3748 18.1452 17.3748 19.4567V24.9355C17.3748 25.26 17.6379 25.5233 17.9624 25.5233H24.525C24.8495 25.5233 25.1129 25.26 25.1129 24.9355V15.1535C25.1129 14.9725 25.0293 14.8015 24.8864 14.6901" fill="url(#paint1_linear_2541_9098)"/>
<defs>
<linearGradient id="paint0_linear_2541_9098" x1="15" y1="0" x2="15" y2="15.1019" gradientUnits="userSpaceOnUse">
<stop offset="0.265625" stop-color="white"/>
<stop offset="0.869792" stop-color="#DBDBDB"/>
</linearGradient>
<linearGradient id="paint1_linear_2541_9098" x1="15.0008" y1="7.13867" x2="15.0008" y2="25.5233" gradientUnits="userSpaceOnUse">
<stop offset="0.265625" stop-color="white"/>
<stop offset="0.869792" stop-color="#DBDBDB"/>
</linearGradient>
</defs>
</svg>