<svg   width="55" height="78" viewBox="0 0 55 78" fill="none" xmlns="http://www.w3.org/2000/svg">
<path d="M54.8911 73.4826L54.7695 74.0267C40.4767 69.8544 27.8748 61.2134 18.7924 49.3576C16.5683 46.394 14.5679 43.2673 12.808 40.0038C12.3725 39.1882 11.9881 38.3422 11.5677 37.5148L10.9473 36.2677C10.7527 35.8475 10.5838 35.4149 10.3994 34.9886L9.31927 32.4295L8.38462 29.8173C7.73021 28.0852 7.27351 26.2856 6.73348 24.5133C6.45817 23.6275 6.29267 22.7126 6.06962 21.8125C5.84657 20.9123 5.63941 20.011 5.4584 19.1025L4.9786 16.3673C4.82372 15.4517 4.64269 14.5432 4.55672 13.6227L4.22423 10.8611L4.06364 9.48526L3.96631 8.09961L4.49643 8.06237L4.59301 9.43736L4.75889 10.8128L5.08459 13.5535C5.14936 14.4755 5.35652 15.3768 5.50535 16.2821L5.97874 19.0017C6.15938 19.9049 6.38735 20.7993 6.58882 21.6956C6.79029 22.592 6.97661 23.5001 7.24588 24.3756C7.78515 26.1372 8.22522 27.9272 8.88948 29.6479L9.81882 32.2605L10.8868 34.7991C11.0712 35.2253 11.2398 35.6526 11.4341 36.0674L12.0537 37.3039C12.4631 38.1267 12.8471 38.9674 13.2928 39.7769C15.0363 43.0129 17.017 46.1141 19.2186 49.0545C23.7064 54.8824 29.0812 59.9618 35.1445 64.1047C38.1732 66.1775 41.3549 68.0148 44.6616 69.6006C46.316 70.4002 47.9916 71.1234 49.6999 71.78C51.3972 72.4451 53.1304 73.0135 54.8911 73.4826Z" fill="currentColor"/>
<path d="M4.00361 4.08047C3.47591 5.19025 3.2096 6.40747 3.22531 7.63778C3.27471 8.36301 3.50729 9.06373 3.90106 9.67369C4.06558 9.93481 4.26135 10.1747 4.48396 10.3879C4.65335 10.1372 4.79178 9.8667 4.89619 9.58236C5.17155 8.91955 5.29245 8.2021 5.24962 7.48487C5.09376 6.27061 4.66788 5.10702 4.00361 4.08047Z" fill="currentColor"/>
<path d="M1.19385 10.2656C1.19385 10.2656 1.60734 12.5877 2.59846 13.7285C2.85209 14.0489 3.19499 14.286 3.58328 14.4095C3.97156 14.5329 4.38757 14.5372 4.77809 14.4216C4.74393 13.3564 4.38527 12.3272 3.75057 11.4732C3.07473 10.7685 2.16453 10.3386 1.19385 10.2656Z" fill="currentColor"/>
<path d="M7.63313 9.63557C7.63313 9.63557 7.75406 11.8122 7.05253 13.1254C6.87073 13.4945 6.59136 13.806 6.24502 14.0259C5.89869 14.2457 5.49877 14.3655 5.08907 14.372C4.87569 13.335 4.98605 12.2574 5.40505 11.2863C5.9044 10.4644 6.70417 9.87182 7.63313 9.63557Z" fill="currentColor"/>
<path d="M1.34277 15.1934C1.34277 15.1934 1.95405 17.8283 3.1473 19.0405C3.36608 19.2815 3.6319 19.4745 3.92815 19.6076C4.2244 19.7407 4.54472 19.8109 4.8691 19.814C5.14765 19.8195 5.42459 19.7709 5.68479 19.671C5.68479 19.671 5.6758 19.5431 5.62409 19.3379C5.57891 19.0566 5.51667 18.7784 5.43772 18.5048C5.24293 17.726 4.85936 17.0078 4.32128 16.4141C3.51101 15.6534 2.45079 15.2188 1.34277 15.1934Z" fill="currentColor"/>
<path d="M8.6028 14.1151C8.6028 14.1151 8.86401 16.5444 8.15057 18.0673C7.88814 18.6604 7.41975 19.1369 6.83298 19.4077C6.58165 19.5208 6.31191 19.587 6.03694 19.6029C6.03694 19.6029 5.99084 19.4776 5.93913 19.2724C5.88804 18.9878 5.85188 18.7007 5.83077 18.4123C5.7582 17.6171 5.88511 16.8164 6.19992 16.0835C6.71279 15.1357 7.57577 14.4288 8.6028 14.1151Z" fill="currentColor"/>
<path d="M2.16504 21.0586C2.3273 21.5915 2.52057 22.1145 2.74386 22.6246C3.10228 23.5545 3.65561 24.3961 4.36623 25.0921C4.73127 25.4394 5.19062 25.6698 5.68598 25.7542C6.18134 25.8386 6.69036 25.7731 7.14844 25.5662C7.06176 25.146 6.93479 24.7352 6.76928 24.3396C6.48641 23.5279 6.02686 22.7899 5.4242 22.1793C4.51185 21.4151 3.35134 21.0161 2.16504 21.0586Z" fill="currentColor"/>
<path d="M9.84205 19.3932C9.9178 19.8902 9.96192 20.3916 9.97414 20.8942C10.0155 21.8219 9.90059 22.7498 9.63419 23.6388C9.48001 24.1062 9.20022 24.5216 8.82577 24.839C8.45132 25.1564 7.99678 25.3635 7.51239 25.4374C7.36178 25.0391 7.24903 24.6274 7.17563 24.2078C7.01622 23.3658 7.08773 22.4961 7.38249 21.6922C7.87162 20.6319 8.75452 19.8066 9.84205 19.3932Z" fill="currentColor"/>
<path d="M3.70342 27.8647C3.90462 28.4094 4.14122 28.9402 4.41171 29.4538C4.91011 30.3857 5.57929 31.2146 6.38396 31.8967C6.67174 32.1248 7.00255 32.2918 7.35635 32.3875C7.71015 32.4833 8.07954 32.5058 8.44215 32.4537C8.75161 32.4069 9.04961 32.3024 9.32083 32.1456C9.20023 31.7093 9.04025 31.2849 8.84288 30.8778C8.47399 30.0446 7.90888 29.3141 7.19639 28.7494C6.52289 28.2394 5.72315 27.9251 4.88441 27.8406C4.4911 27.8029 4.09481 27.811 3.70342 27.8647Z" fill="currentColor"/>
<path d="M11.6524 25.4471C11.7586 25.9635 11.8344 26.4857 11.8795 27.0111C12.046 27.9691 12.019 28.951 11.8 29.898C11.6154 30.6107 11.175 31.2292 10.5635 31.6344C10.3028 31.8098 10.0115 31.9338 9.70479 32C9.52377 31.5901 9.37977 31.1646 9.27454 30.7288C9.03792 29.864 9.0216 28.9535 9.22707 28.0811C9.49076 27.2975 9.98026 26.6107 10.6334 26.1078C10.9454 25.8472 11.2876 25.6254 11.6524 25.4471Z" fill="currentColor"/>
<path d="M5.64182 34.3057C5.92438 34.8616 6.23797 35.401 6.58106 35.9214C7.15546 36.8961 7.94248 37.7272 8.88274 38.3519C9.21544 38.5649 9.58752 38.708 9.97659 38.7728C10.3657 38.8375 10.7637 38.8224 11.1467 38.7284C11.4613 38.6511 11.7589 38.5158 12.0243 38.3293C11.8584 37.8784 11.6496 37.4447 11.4006 37.0342C10.9124 36.2016 10.2576 35.4797 9.47768 34.9145C8.31636 34.2453 6.95109 34.0286 5.64182 34.3057Z" fill="currentColor"/>
<path d="M13.8395 31.0242C14.011 31.5517 14.1502 32.0892 14.2563 32.6337C14.4683 33.6423 14.5195 34.6782 14.4079 35.7026C14.2915 36.472 13.8917 37.1691 13.2879 37.6558C13.0298 37.8681 12.7337 38.0289 12.4155 38.1295C12.1683 37.718 11.9595 37.2845 11.7918 36.8343C11.4337 35.9441 11.3375 34.9693 11.5146 34.026C11.6859 33.3961 11.9796 32.8066 12.3786 32.2914C12.7776 31.7762 13.2741 31.3455 13.8395 31.0242Z" fill="currentColor"/>
<path d="M8.66387 41.9065C9.04182 42.4829 9.4525 43.037 9.89386 43.566C10.2898 44.0457 10.7167 44.4988 11.1718 44.9223C11.6351 45.3329 12.1543 45.6752 12.7136 45.9387C13.1008 46.1281 13.5221 46.2367 13.9521 46.2581C14.3821 46.2794 14.8118 46.213 15.2155 46.0629C15.5573 45.9353 15.8712 45.7422 16.1398 45.4945C15.8903 45.0303 15.5991 44.59 15.2696 44.1792C14.9575 43.7854 14.6145 43.4172 14.244 43.0783C13.8507 42.686 13.3999 42.3564 12.9075 42.1011C11.5622 41.524 10.0551 41.4549 8.66387 41.9065Z" fill="currentColor"/>
<path d="M17.1941 37.3718C17.4456 37.9191 17.663 38.4815 17.8451 39.0559C18.0166 39.5842 18.1489 40.1245 18.241 40.6723C18.3461 41.2253 18.3857 41.7888 18.3589 42.3511C18.3226 43.2012 17.9752 44.0076 17.3833 44.6155C17.1286 44.8801 16.8277 45.0954 16.4956 45.2509C16.184 44.8312 15.9101 44.3844 15.6773 43.9159C15.448 43.4751 15.2688 43.0098 15.143 42.5288C15.0202 41.9945 14.9816 41.4442 15.0285 40.898C15.2465 38.6922 17.1941 37.3718 17.1941 37.3718Z" fill="currentColor"/>
<path d="M13.3943 50.2463C13.8664 50.8127 14.3685 51.3531 14.8985 51.8652C15.8659 52.7813 17.0021 53.4984 18.2432 53.9761C18.6827 54.1217 19.1473 54.1749 19.6081 54.1324C20.0688 54.0899 20.5159 53.9526 20.9215 53.729C21.2649 53.5436 21.5694 53.2931 21.8179 52.9912C21.8179 52.9912 21.7116 52.8434 21.5198 52.6158C21.3281 52.3883 21.0318 52.1146 20.691 51.7368C19.9185 50.9109 18.9611 50.2823 17.8985 49.9032C16.4053 49.4612 14.8034 49.5833 13.3943 50.2463Z" fill="currentColor"/>
<path d="M21.8112 44.251C22.1402 44.7996 22.433 45.3695 22.6875 45.9568C23.2442 47.0111 23.5945 48.1628 23.7196 49.3495C23.8095 50.2469 23.5651 51.1457 23.0338 51.872C22.8033 52.1878 22.5171 52.4584 22.1895 52.6704C22.1895 52.6704 22.0582 52.5457 21.8566 52.3296C21.5834 52.0381 21.335 51.7241 21.1141 51.3909C20.4865 50.4735 20.0987 49.4122 19.9863 48.3049C19.9409 45.9141 21.8112 44.251 21.8112 44.251Z" fill="currentColor"/>
<path d="M19.4202 58.064C19.9992 58.5813 20.6077 59.0643 21.2425 59.5105C22.3602 60.3496 23.6442 60.9371 25.0074 61.2331C25.4835 61.3229 25.9729 61.3127 26.4447 61.2031C26.9165 61.0934 27.3606 60.8867 27.7489 60.596C28.0774 60.3521 28.3562 60.0471 28.5701 59.6974C28.5701 59.6974 28.4381 59.5621 28.205 59.3535C27.9719 59.145 27.6375 58.8578 27.2322 58.5489C26.2935 57.8271 25.2134 57.3133 24.0631 57.0416C21.5944 56.5563 19.4202 58.064 19.4202 58.064Z" fill="currentColor"/>
<path d="M27.3003 50.6454C27.7271 51.158 28.1209 51.6974 28.4793 52.2604C29.1833 53.2893 29.7068 54.4318 30.0271 55.6382C30.2448 56.5596 30.1237 57.5288 29.686 58.3668C29.4947 58.7281 29.2371 59.0496 28.9268 59.3146C28.9268 59.3146 28.7702 59.2077 28.5325 59.0102C28.2058 58.7487 27.9051 58.456 27.6347 58.136C26.8279 57.2903 26.2721 56.2349 26.0302 55.0889C25.5964 52.6289 27.3003 50.6454 27.3003 50.6454Z" fill="currentColor"/>
<path d="M26.1383 64.8222C26.1383 64.8222 26.3521 64.9839 26.7002 65.2379C27.0484 65.492 27.6074 65.7901 28.2266 66.1108C29.5192 66.8446 30.953 67.2917 32.4314 67.4222C32.9446 67.4513 33.4582 67.3732 33.9398 67.1928C34.4213 67.0124 34.8603 66.7337 35.2292 66.3741C35.5427 66.072 35.7959 65.7125 35.9752 65.3148C35.9752 65.3148 35.8171 65.1867 35.5427 64.9971C35.2683 64.8075 34.863 64.5735 34.4013 64.2953C33.3189 63.6568 32.1115 63.2628 30.8627 63.1407C29.6868 63.0904 28.5191 63.3573 27.4809 63.9138C26.9991 64.162 26.5484 64.4669 26.1383 64.8222Z" fill="currentColor"/>
<path d="M33.4148 55.9349C33.4148 55.9349 33.5805 56.0947 33.8348 56.3767C34.089 56.6588 34.4666 57.0286 34.8505 57.489C35.7344 58.472 36.4411 59.6022 36.939 60.8289C37.293 61.7684 37.29 62.806 36.9306 63.743C36.7804 64.1547 36.5539 64.534 36.2633 64.861C36.2633 64.861 36.0866 64.7716 35.8077 64.5931C35.4295 64.3605 35.0722 64.0953 34.7398 63.8004C33.775 63.0205 33.0471 61.9843 32.6385 60.8096C32.3237 59.7027 32.3583 58.5251 32.7374 57.4393C32.9047 56.9132 33.132 56.4084 33.4148 55.9349Z" fill="currentColor"/>
</svg>