<svg xmlns="http://www.w3.org/2000/svg" width="1em" height="1em" viewBox="0 0 40 40" fill="none">
  <path d="M10.8111 19.1423L11.7788 19.2424C13.147 19.3759 14.1481 20.6106 14.0147 21.9788L13.6142 25.7496L15.6832 25.9499L18.6865 9.73188C18.9535 8.3637 20.1214 7.39596 21.523 7.39596C21.6898 7.39596 21.89 7.39596 22.0569 7.42933L24.4929 7.89651L24.1926 6.42822C24.0257 5.49385 23.1247 4.85981 22.1904 5.02667L10.3773 7.19574C9.44292 7.36259 8.80888 8.26359 8.97573 9.19796L10.8111 19.1423ZM11.8122 10.4994L13.0135 8.73077C13.0803 8.66403 13.1804 8.63066 13.2471 8.6974L15.0158 9.89873C15.4829 10.1991 15.6498 10.8665 15.3161 11.3337C15.1492 11.6006 14.9157 11.7341 14.6487 11.8008C14.4485 11.8342 14.2482 11.8342 14.048 11.7341L14.5819 12.5016C14.6153 12.5684 14.5819 12.6685 14.5152 12.6685L13.2805 12.9021C13.2138 12.9354 13.1137 12.8353 13.147 12.7686L13.3472 11.8342C13.2138 11.9677 13.0135 12.0678 12.8133 12.1012C12.5464 12.1679 12.2794 12.1012 12.0458 11.9343C11.6454 11.634 11.5119 10.9666 11.8122 10.4994Z" fill="white"/>
  <path d="M33.6364 10.7997L21.8233 8.59729C20.8889 8.43044 19.9879 9.0311 19.8211 9.99884L16.8178 26.1167L17.3851 26.1834C18.0525 26.2502 18.6531 26.5839 19.0536 27.0844C19.4874 27.6184 19.6542 28.2524 19.5875 28.9198L19.3873 30.922L29.5318 32.7908C30.4662 32.9576 31.3672 32.357 31.5341 31.4226L35.0046 12.8353C35.1714 11.8676 34.5708 10.9666 33.6364 10.7997ZM22.0235 12.1679L23.7922 10.9332C23.8589 10.8665 23.9924 10.8998 24.0257 10.9666L25.2271 12.7352C25.5608 13.2024 25.4607 13.8698 24.9935 14.2035C24.7599 14.3704 24.4596 14.4371 24.1926 14.3704C23.9924 14.337 23.8255 14.2369 23.6587 14.1034L23.8923 15.0378C23.9256 15.1045 23.8589 15.2046 23.7588 15.1712L22.5241 14.9377C22.4573 14.9377 22.3906 14.8375 22.4573 14.7708L22.9913 14.0033C22.791 14.07 22.5908 14.1034 22.424 14.07C22.157 14.0367 21.9234 13.8698 21.7566 13.6362C21.4562 13.1357 21.5563 12.5016 22.0235 12.1679ZM28.8644 25.516C28.2971 25.9499 27.5964 26.0833 26.929 25.9499C26.4618 25.8497 25.9946 25.6495 25.6609 25.2824L26.1948 27.5183C26.2282 27.7185 26.0613 27.9187 25.8611 27.852L22.8578 27.318C22.6576 27.2847 22.5575 27.0511 22.6909 26.8842L23.9924 25.0155C23.5252 25.2157 23.058 25.2491 22.5908 25.149C21.9568 25.0155 21.3561 24.6818 20.9557 24.1145C20.1548 22.9799 20.4551 21.3781 21.6231 20.5772L25.9279 17.6406C26.1281 17.5072 26.395 17.5739 26.5285 17.7408L29.4651 22.0122C30.1993 23.1134 29.9657 24.6818 28.8644 25.516Z" fill="white"/>
  <path d="M8.10811 32.4904C8.07474 32.4904 8.07474 32.4904 8.04137 32.4904C7.70766 32.4904 7.4407 32.724 7.40733 33.0577L7.27385 34.2924C7.24048 34.6595 7.50744 34.9598 7.84114 34.9932C7.87451 34.9932 7.87451 34.9932 7.90788 34.9932C8.24159 34.9932 8.50855 34.7596 8.54192 34.4259L8.6754 33.1912C8.70877 33.0244 8.64203 32.8575 8.54192 32.724C8.40844 32.5905 8.27496 32.4904 8.10811 32.4904Z" fill="white"/>
  <path d="M5.90566 31.3225C5.77218 31.3225 5.60533 31.3892 5.50522 31.456L4.53748 32.2235C4.404 32.357 4.30389 32.5238 4.30389 32.6907C4.30389 32.8575 4.33726 33.0244 4.43737 33.1578C4.53748 33.2913 4.70433 33.3914 4.87118 33.3914C4.90456 33.3914 4.90456 33.3914 4.93793 33.3914C5.07141 33.3914 5.23826 33.3247 5.33837 33.258L6.30611 32.4904C6.43959 32.3903 6.5397 32.2235 6.5397 32.0566C6.57307 31.8898 6.50633 31.7229 6.40622 31.5894C6.27274 31.4226 6.10589 31.3225 5.90566 31.3225Z" fill="white"/>
  <path d="M5.20489 30.3214C5.53859 30.3214 5.80555 30.0878 5.83892 29.7541C5.87229 29.387 5.60533 29.0867 5.27163 29.0533L4.03693 28.9198C4.00356 28.9198 4.00356 28.9198 3.97019 28.9198C3.63648 28.9198 3.36952 29.1534 3.33615 29.4871C3.30278 29.8542 3.56974 30.1545 3.90345 30.1879L5.13815 30.3214C5.17152 30.3214 5.20489 30.3214 5.20489 30.3214Z" fill="white"/>
  <path d="M17.2182 27.585L15.4162 27.3848L13.4807 27.1846V27.2847C13.414 27.8186 13.2138 28.2858 12.8801 28.6862C12.4129 29.2201 11.7455 29.5205 11.0113 29.5205C10.9112 29.5205 10.8445 29.5205 10.7444 29.5205H10.6109L10.1771 33.2913C10.1103 33.892 10.5441 34.3925 11.1114 34.4593L16.4173 34.9932C16.9846 35.06 17.5185 34.6261 17.5853 34.0588L18.1192 28.753C18.2193 28.1523 17.7855 27.6517 17.2182 27.585ZM15.0825 31.1223C15.0158 31.6228 14.5819 31.9899 14.0814 31.9565C13.5808 31.8898 13.2138 31.456 13.2471 30.9554C13.3139 30.4549 13.7477 30.0878 14.2482 30.1211C14.7822 30.1545 15.1492 30.5883 15.0825 31.1223Z" fill="white"/>
  <path d="M5.53859 27.5516L10.8445 28.1189C11.4451 28.1857 11.9457 27.7519 12.0124 27.1512L12.5464 21.8453C12.6131 21.2446 12.1793 20.7441 11.5786 20.6773L6.27274 20.1434C5.67207 20.0767 5.17152 20.5105 5.10478 21.1112L4.60422 26.3837C4.53748 26.9843 4.9713 27.4849 5.53859 27.5516ZM9.60977 22.5127C9.64314 22.0455 10.077 21.7118 10.5441 21.7452C11.0113 21.7786 11.345 22.2124 11.3117 22.6796C11.2783 23.1467 10.8445 23.4805 10.3773 23.4471C9.87673 23.4137 9.54303 22.9799 9.60977 22.5127ZM9.2427 25.8831C9.27607 25.4159 9.70988 25.0822 10.1771 25.1156C10.6442 25.149 10.978 25.5828 10.9446 26.05C10.9112 26.5172 10.4774 26.8509 10.0102 26.8175C9.54303 26.7841 9.20933 26.3503 9.2427 25.8831ZM6.23937 22.179C6.27274 21.7118 6.70655 21.3781 7.17374 21.4115C7.64092 21.4449 7.97462 21.8787 7.94125 22.3459C7.90788 22.813 7.47407 23.1467 7.00689 23.1134C6.50633 23.0466 6.17263 22.6462 6.23937 22.179ZM5.87229 25.5494C5.90566 25.0822 6.33948 24.7485 6.80666 24.7819C7.27385 24.8153 7.60755 25.2491 7.57418 25.7163C7.54081 26.1834 7.107 26.5172 6.63981 26.4838C6.17263 26.417 5.83892 26.0166 5.87229 25.5494Z" fill="white"/>
</svg>