<svg width="1em" height="1em" viewBox="0 0 30 30" fill="none" xmlns="http://www.w3.org/2000/svg">
<g clip-path="url(#clip0_2541_9021)">
<path d="M11.1098 29.9993C11.1098 27.4115 11.1098 25.0896 11.1098 22.7678C11.0356 22.1787 10.8687 21.6054 10.6154 21.0699C10.0121 19.8515 9.5353 18.5729 9.19261 17.2547C9.03606 15.5024 9.03606 13.7393 9.19261 11.987C9.15809 11.5174 9.22647 11.0458 9.39296 10.6062C9.55946 10.1666 9.8199 9.76972 10.1556 9.44414C10.4912 9.11857 10.8938 8.87233 11.3344 8.72308C11.7751 8.57384 12.2429 8.52531 12.7042 8.58095C14.3288 8.58095 15.9535 8.58095 17.5781 8.58095C17.9656 8.56451 18.3523 8.62686 18.7157 8.76432C19.0791 8.90178 19.4116 9.11158 19.6937 9.38134C19.9759 9.6511 20.2019 9.97537 20.3584 10.335C20.515 10.6947 20.5989 11.0825 20.6053 11.4756C20.6861 13.8588 20.6053 16.242 20.6053 18.6355C20.6053 19.014 20.6053 19.5561 20.3329 19.7606C18.3147 21.4892 18.8899 23.852 18.8697 26.0204C18.8697 30.0095 18.8697 30.0095 14.8333 30.0095L11.1098 29.9993Z" fill="url(#paint0_linear_2541_9021)"/>
<path d="M7.64862 9.08194C7.48716 11.3526 7.25507 13.5313 7.20462 15.7202C7.20462 17.6943 7.20463 19.7195 8.6678 21.3152C8.81024 21.4951 8.88845 21.7186 8.88977 21.9493C8.88977 24.5882 8.88977 27.2272 8.88977 29.9275H1.8262C1.8262 27.5443 1.91701 25.2326 1.8262 22.9312C1.64199 21.9907 1.34372 21.0768 0.938199 20.2105C0.560933 19.2829 0.273696 18.3203 0.0805047 17.3363C-0.0708576 16.16 0.0805071 14.9531 0.0199622 13.7666C-0.212127 9.27628 2.35094 8.77508 5.82218 8.65234C6.4458 8.72068 7.05903 8.86492 7.64862 9.08194V9.08194Z" fill="url(#paint1_linear_2541_9021)"/>
<path d="M22.1797 8.96046C23.7861 8.86214 25.3968 8.86214 27.0031 8.96046C27.8527 9.03866 28.6386 9.4504 29.1929 10.1078C29.7471 10.7652 30.026 11.6162 29.9698 12.479C29.9698 14.177 29.9698 15.8851 29.9698 17.5933C30.023 18.2174 29.8742 18.8422 29.546 19.373C27.6489 21.296 28.2645 23.669 28.2342 25.909C28.1737 30.0004 28.2342 30.0004 24.2887 30.0004C21.1 30.0004 21.1 30.0004 21.1 26.7477C21.0344 25.5587 21.0344 24.367 21.1 23.178C21.2987 22.3325 21.555 21.502 21.8669 20.6925C22.266 19.3512 22.5761 17.9843 22.7952 16.6011C22.9264 15.3568 22.9264 14.1018 22.7952 12.8575C22.6943 11.6505 22.4219 10.4436 22.1797 8.96046Z" fill="url(#paint2_linear_2541_9021)"/>
<path d="M15.1766 0.000157664C16.1637 0.0839598 17.0828 0.543895 17.7486 1.28728C18.4144 2.03067 18.7775 3.00223 18.7647 4.00621C18.7519 5.01018 18.3642 5.97192 17.6796 6.69762C16.9951 7.42332 16.0646 7.85903 15.0757 7.91696C14.5722 7.92101 14.073 7.824 13.6067 7.63151C13.1404 7.43903 12.7164 7.15487 12.359 6.79544C12.0016 6.43602 11.7179 6.00842 11.5243 5.53732C11.3307 5.06622 11.2311 4.56094 11.2311 4.05061C11.1944 3.5135 11.271 2.97465 11.4556 2.46983C11.6403 1.96502 11.9288 1.50581 12.3019 1.1227C12.6751 0.739592 13.1244 0.441357 13.6201 0.247815C14.1157 0.0542729 14.6463 -0.030148 15.1766 0.000157664V0.000157664Z" fill="url(#paint3_linear_2541_9021)"/>
<path d="M5.49956 8.23308C3.06767 8.23308 2.03843 7.21022 2.04852 4.76563C2.03001 4.29649 2.10975 3.82872 2.2825 3.39308C2.45524 2.95745 2.71704 2.56384 3.0507 2.23819C3.38436 1.91254 3.78231 1.66223 4.21831 1.50374C4.65431 1.34524 5.11851 1.28216 5.5803 1.31865C6.0444 1.29672 6.50765 1.37689 6.93829 1.55363C7.36892 1.73038 7.75675 1.99952 8.07505 2.34257C8.39334 2.68562 8.63455 3.09443 8.78222 3.54095C8.92988 3.98746 8.98048 4.46109 8.93046 4.92929C8.91028 7.22045 7.90117 8.23308 5.49956 8.23308Z" fill="url(#paint4_linear_2541_9021)"/>
<path d="M24.5005 8.23426C22.1594 8.23426 21.1503 7.21141 21.1301 4.88956C21.0841 4.42286 21.1385 3.95157 21.2896 3.50825C21.4407 3.06492 21.6848 2.6601 22.0053 2.32171C22.3257 1.98332 22.7147 1.71942 23.1455 1.54821C23.5763 1.37701 24.0386 1.30259 24.5005 1.33007C24.962 1.29387 25.4258 1.35866 25.8604 1.52006C26.295 1.68145 26.6903 1.93566 27.0195 2.26548C27.3487 2.59529 27.6041 2.993 27.7684 3.43163C27.9327 3.87026 28.002 4.33956 27.9717 4.80773C27.9717 7.25233 26.9828 8.23426 24.5005 8.23426Z" fill="url(#paint5_linear_2541_9021)"/>
</g>
<defs>
<linearGradient id="paint0_linear_2541_9021" x1="14.8582" y1="8.55859" x2="14.8582" y2="30.0095" gradientUnits="userSpaceOnUse">
<stop offset="0.265625" stop-color="white"/>
<stop offset="0.869792" stop-color="#DBDBDB"/>
</linearGradient>
<linearGradient id="paint1_linear_2541_9021" x1="4.44757" y1="8.65234" x2="4.44757" y2="29.9275" gradientUnits="userSpaceOnUse">
<stop offset="0.265625" stop-color="white"/>
<stop offset="0.869792" stop-color="#DBDBDB"/>
</linearGradient>
<linearGradient id="paint2_linear_2541_9021" x1="25.5156" y1="8.88672" x2="25.5156" y2="30.0004" gradientUnits="userSpaceOnUse">
<stop offset="0.265625" stop-color="white"/>
<stop offset="0.869792" stop-color="#DBDBDB"/>
</linearGradient>
<linearGradient id="paint3_linear_2541_9021" x1="14.9936" y1="-0.00585938" x2="14.9936" y2="7.91708" gradientUnits="userSpaceOnUse">
<stop offset="0.265625" stop-color="white"/>
<stop offset="0.869792" stop-color="#DBDBDB"/>
</linearGradient>
<linearGradient id="paint4_linear_2541_9021" x1="5.49753" y1="1.30859" x2="5.49753" y2="8.23308" gradientUnits="userSpaceOnUse">
<stop offset="0.265625" stop-color="white"/>
<stop offset="0.869792" stop-color="#DBDBDB"/>
</linearGradient>
<linearGradient id="paint5_linear_2541_9021" x1="24.5465" y1="1.32031" x2="24.5465" y2="8.23426" gradientUnits="userSpaceOnUse">
<stop offset="0.265625" stop-color="white"/>
<stop offset="0.869792" stop-color="#DBDBDB"/>
</linearGradient>
<clipPath id="clip0_2541_9021">
<rect width="30" height="30" fill="white"/>
</clipPath>
</defs>
</svg>